<svg width="486" height="248" viewBox="0 0 486 248" fill="none" xmlns="http://www.w3.org/2000/svg">
<g id="oam-app" clip-path="url(#clip0_3445_135574)">
<rect width="486" height="248" fill="white"/>
<g id="Group 840">
<path id="Vector 117" d="M242.293 211.707C242.683 212.098 243.317 212.098 243.707 211.707L250.071 205.343C250.462 204.953 250.462 204.319 250.071 203.929C249.681 203.538 249.047 203.538 248.657 203.929L243 209.586L237.343 203.929C236.953 203.538 236.319 203.538 235.929 203.929C235.538 204.319 235.538 204.953 235.929 205.343L242.293 211.707ZM242 150V211H244V150H242Z" fill="#312D2A"/>
<path id="Vector 118" d="M182.707 132.707C183.098 132.317 183.098 131.683 182.707 131.293L176.343 124.929C175.953 124.538 175.319 124.538 174.929 124.929C174.538 125.319 174.538 125.953 174.929 126.343L180.586 132L174.929 137.657C174.538 138.047 174.538 138.681 174.929 139.071C175.319 139.462 175.953 139.462 176.343 139.071L182.707 132.707ZM80 133L182 133L182 131L80 131L80 133Z" fill="#312D2A"/>
<path id="Vector 119" d="M303.293 131.293C302.902 131.683 302.902 132.317 303.293 132.707L309.657 139.071C310.047 139.462 310.681 139.462 311.071 139.071C311.462 138.681 311.462 138.047 311.071 137.657L305.414 132L311.071 126.343C311.462 125.953 311.462 125.319 311.071 124.929C310.681 124.538 310.047 124.538 309.657 124.929L303.293 131.293ZM304 133L406 133L406 131L304 131L304 133Z" fill="#312D2A"/>
<path id="Vector 114" d="M206 55.7436V56.7436H207V55.7436H206ZM40 55.7436V54.7436H39V55.7436H40ZM39.2929 113.707C39.6834 114.098 40.3166 114.098 40.7071 113.707L47.0711 107.343C47.4616 106.953 47.4616 106.319 47.0711 105.929C46.6805 105.538 46.0474 105.538 45.6569 105.929L40 111.586L34.3431 105.929C33.9526 105.538 33.3195 105.538 32.9289 105.929C32.5384 106.319 32.5384 106.953 32.9289 107.343L39.2929 113.707ZM205 36V55.7436H207V36H205ZM206 54.7436H40V56.7436H206V54.7436ZM39 55.7436V113H41V55.7436H39Z" fill="#312D2A"/>
<path id="Vector 115" d="M280 55.7436V56.7436H279V55.7436H280ZM446 55.7436V54.7436H447V55.7436H446ZM446.707 113.707C446.317 114.098 445.683 114.098 445.293 113.707L438.929 107.343C438.538 106.953 438.538 106.319 438.929 105.929C439.319 105.538 439.953 105.538 440.343 105.929L446 111.586L451.657 105.929C452.047 105.538 452.681 105.538 453.071 105.929C453.462 106.319 453.462 106.953 453.071 107.343L446.707 113.707ZM281 36V55.7436H279V36H281ZM280 54.7436H446V56.7436H280V54.7436ZM447 55.7436V113H445V55.7436H447Z" fill="#312D2A"/>
<g id="Connector Line Label">
<rect width="71" height="14" transform="translate(96 125)" fill="white"/>
<text id="Line Label" fill="#312D2A" xml:space="preserve" style="white-space: pre" font-family="Oracle Sans" font-size="14" letter-spacing="0em"><tspan x="100.157" y="137.089">applied to</tspan></text>
</g>
<g id="Connector Line Label_2">
<rect width="62" height="14" transform="translate(212 174)" fill="white"/>
<text id="Line Label_2" fill="#312D2A" xml:space="preserve" style="white-space: pre" font-family="Oracle Sans" font-size="14" letter-spacing="0em"><tspan x="216.08" y="186.089">contains</tspan></text>
</g>
<g id="Connector Line Label_3">
<rect width="74" height="14" transform="translate(409 76)" fill="white"/>
<text id="Line Label_3" fill="#312D2A" xml:space="preserve" style="white-space: pre" font-family="Oracle Sans" font-size="14" letter-spacing="0em"><tspan x="413.085" y="88.089">references</tspan></text>
</g>
<g id="Connector Line Label_4">
<rect width="71" height="14" transform="translate(319 125)" fill="white"/>
<text id="Line Label_4" fill="#312D2A" xml:space="preserve" style="white-space: pre" font-family="Oracle Sans" font-size="14" letter-spacing="0em"><tspan x="323.157" y="137.089">applied to</tspan></text>
</g>
<g id="Connector Line Label_5">
<rect width="62" height="14" transform="translate(9 76)" fill="white"/>
<text id="Line Label_5" fill="#312D2A" xml:space="preserve" style="white-space: pre" font-family="Oracle Sans" font-size="14" letter-spacing="0em"><tspan x="13.0801" y="88.089">contains</tspan></text>
</g>
<path id="Vector 116" d="M242.293 113.707C242.683 114.098 243.317 114.098 243.707 113.707L250.071 107.343C250.462 106.953 250.462 106.319 250.071 105.929C249.681 105.538 249.047 105.538 248.657 105.929L243 111.586L237.343 105.929C236.953 105.538 236.319 105.538 235.929 105.929C235.538 106.319 235.538 106.953 235.929 107.343L242.293 113.707ZM242 36V113H244V36H242Z" fill="#312D2A"/>
<g id="Connector Line Label_6">
<rect width="74" height="14" transform="translate(206 76)" fill="white"/>
<text id="Line Label_6" fill="#312D2A" xml:space="preserve" style="white-space: pre" font-family="Oracle Sans" font-size="14" letter-spacing="0em"><tspan x="210.085" y="88.089">references</tspan></text>
</g>
<g id="Text Heading">
<rect x="0.5" y="114.5" width="79" height="35" rx="3.5" fill="#FCEFCB"/>
<text id="Neutral Group Heading H3" fill="#312D2A" xml:space="preserve" style="white-space: pre" font-family="Oracle Sans" font-size="16" letter-spacing="0em"><tspan x="20.1953" y="137.816">Traits</tspan></text>
<rect x="0.5" y="114.5" width="79" height="35" rx="3.5" stroke="#DEB068"/>
</g>
<g id="Text Heading_2">
<rect x="183.5" y="212.5" width="119" height="35" rx="3.5" fill="#FCEFCB"/>
<text id="Neutral Group Heading H3_2" fill="#312D2A" xml:space="preserve" style="white-space: pre" font-family="Oracle Sans" font-size="16" letter-spacing="0em"><tspan x="205.023" y="235.816">Workloads</tspan></text>
<rect x="183.5" y="212.5" width="119" height="35" rx="3.5" stroke="#DEB068"/>
</g>
<g id="Text Heading_3">
<rect x="183.5" y="114.5" width="119" height="35" rx="3.5" fill="#FCEFCB"/>
<text id="Neutral Group Heading H3_3" fill="#312D2A" xml:space="preserve" style="white-space: pre" font-family="Oracle Sans" font-size="16" letter-spacing="0em"><tspan x="196.477" y="137.816">Components</tspan></text>
<rect x="183.5" y="114.5" width="119" height="35" rx="3.5" stroke="#DEB068"/>
</g>
<g id="Text Heading_4">
<rect x="406.5" y="114.5" width="79" height="35" rx="3.5" fill="#FCEFCB"/>
<text id="Neutral Group Heading H3_4" fill="#312D2A" xml:space="preserve" style="white-space: pre" font-family="Oracle Sans" font-size="16" letter-spacing="0em"><tspan x="420.18" y="137.816">Scopes</tspan></text>
<rect x="406.5" y="114.5" width="79" height="35" rx="3.5" stroke="#DEB068"/>
</g>
<g id="Text Heading_5">
<rect x="123.5" y="0.5" width="241" height="35" rx="3.5" fill="#FCEFCB"/>
<text id="Neutral Group Heading H3_5" fill="#312D2A" xml:space="preserve" style="white-space: pre" font-family="Oracle Sans" font-size="16" letter-spacing="0em"><tspan x="147.703" y="23.816">Application Configurations</tspan></text>
<rect x="123.5" y="0.5" width="241" height="35" rx="3.5" stroke="#DEB068"/>
</g>
</g>
</g>
<defs>
<clipPath id="clip0_3445_135574">
<rect width="486" height="248" fill="white"/>
</clipPath>
</defs>
</svg>
