<?xml version="1.0" encoding="utf-8"?>
<!-- Generator: Adobe Illustrator 16.0.0, SVG Export Plug-In . SVG Version: 6.00 Build 0)  -->
<!DOCTYPE svg PUBLIC "-//W3C//DTD SVG 1.1//EN" "http://www.w3.org/Graphics/SVG/1.1/DTD/svg11.dtd">
<svg version="1.1" id="Layer_1" xmlns="http://www.w3.org/2000/svg" xmlns:xlink="http://www.w3.org/1999/xlink" x="0px" y="0px"
	 width="842px" height="426px" viewBox="0 0 842 426" enable-background="new 0 0 842 426" xml:space="preserve">
<g>
	<defs>
		<rect id="SVGID_1_" width="842" height="426"/>
	</defs>
	<clipPath id="SVGID_2_">
		<use xlink:href="#SVGID_1_"  overflow="visible"/>
	</clipPath>
	<g id="hello-helidon" clip-path="url(#SVGID_2_)">
		<rect fill="#FFFFFF" width="842" height="426"/>
		<path id="Vector_22" fill="#161513" d="M520.707,24.707c0.391-0.391,0.391-1.023,0-1.414l-6.364-6.364
			c-0.39-0.39-1.023-0.39-1.414,0c-0.391,0.391-0.391,1.024,0,1.415L518.586,24l-5.657,5.657c-0.391,0.391-0.391,1.024,0,1.415
			c0.391,0.39,1.024,0.39,1.414,0L520.707,24.707z M320,25h200v-2H320V25z"/>
		<g id="Text_Block">
			<path fill="#E4E1DD" d="M4,0.5h312c1.933,0,3.5,1.567,3.5,3.5v40c0,1.933-1.567,3.5-3.5,3.5H4c-1.933,0-3.5-1.567-3.5-3.5V4
				C0.5,2.067,2.067,0.5,4,0.5z"/>
			<text transform="matrix(1 0 0 1 52.5547 21.8164)" fill="#312D2A" font-family="'OracleSans-Italic'" font-size="16">&lt;&lt;applicationconfiguration&gt;&gt; </text>
			<text transform="matrix(1 0 0 1 78.9219 37.8164)" fill="#312D2A" font-family="'OracleSans-Regular'" font-size="16">hello-helidon-appconf</text>
			<path fill="none" stroke="#9E9892" d="M4,0.5h312c1.933,0,3.5,1.567,3.5,3.5v40c0,1.933-1.567,3.5-3.5,3.5H4
				c-1.933,0-3.5-1.567-3.5-3.5V4C0.5,2.067,2.067,0.5,4,0.5z"/>
		</g>
		<g id="Text_Block_x5F_2">
			<path fill="#E4E1DD" d="M4,189.5h312c1.933,0,3.5,1.567,3.5,3.5v40c0,1.934-1.567,3.5-3.5,3.5H4c-1.933,0-3.5-1.566-3.5-3.5v-40
				C0.5,191.067,2.067,189.5,4,189.5z"/>
			<text transform="matrix(1 0 0 1 41.0469 210.8164)" fill="#312D2A" font-family="'OracleSans-Italic'" font-size="16">&lt;&lt;verrazzanohelidonworkload&gt;&gt; </text>
			<text transform="matrix(1 0 0 1 75.4375 226.8164)" fill="#312D2A" font-family="'OracleSans-Regular'" font-size="16">hello-helidon-workload</text>
			<path fill="none" stroke="#9E9892" d="M4,189.5h312c1.933,0,3.5,1.567,3.5,3.5v40c0,1.934-1.567,3.5-3.5,3.5H4
				c-1.933,0-3.5-1.566-3.5-3.5v-40C0.5,191.067,2.067,189.5,4,189.5z"/>
		</g>
		<g id="Text_Block_x5F_3">
			<path fill="#E4E1DD" d="M4,378.5h312c1.933,0,3.5,1.566,3.5,3.5v40c0,1.933-1.567,3.5-3.5,3.5H4c-1.933,0-3.5-1.567-3.5-3.5v-40
				C0.5,380.066,2.067,378.5,4,378.5z"/>
			<text transform="matrix(1 0 0 1 97.5703 399.8164)" fill="#312D2A" font-family="'OracleSans-Italic'" font-size="16">&lt;&lt;deployment&gt;&gt; </text>
			<text transform="matrix(1 0 0 1 65.4063 415.8164)" fill="#312D2A" font-family="'OracleSans-Regular'" font-size="16">hello-helidon-deployment</text>
			<path fill="none" stroke="#9E9892" d="M4,378.5h312c1.933,0,3.5,1.566,3.5,3.5v40c0,1.933-1.567,3.5-3.5,3.5H4
				c-1.933,0-3.5-1.567-3.5-3.5v-40C0.5,380.066,2.067,378.5,4,378.5z"/>
		</g>
		<g id="Start_x2F_End">
			<path id="Rectangle_705" fill="#DBC9E5" stroke="#9E9892" d="M328,95.5h184c12.979,0,23.5,10.521,23.5,23.5l0,0
				c0,12.979-10.521,23.5-23.5,23.5H328c-12.979,0-23.5-10.521-23.5-23.5l0,0C304.5,106.021,315.021,95.5,328,95.5z"/>
			<text transform="matrix(1 0 0 1 371.147 115.6553)" fill="#312D2A" font-family="'OracleSans-Italic'" font-size="16">&lt;&lt;operator&gt;&gt; </text>
			<text transform="matrix(1 0 0 1 329.21 131.6553)" fill="#312D2A" font-family="'OracleSans-Regular'" font-size="16">oam-kubernetes-runtime</text>
		</g>
		<g id="Text_Block_x5F_4">
			<path fill="#E4E1DD" d="M526,189.5h312c1.933,0,3.5,1.567,3.5,3.5v40c0,1.934-1.567,3.5-3.5,3.5H526c-1.933,0-3.5-1.566-3.5-3.5
				v-40C522.5,191.067,524.067,189.5,526,189.5z"/>
			<text transform="matrix(1 0 0 1 618.5469 210.8164)" fill="#312D2A" font-family="'OracleSans-Italic'" font-size="16">&lt;&lt;ingressstrait&gt;&gt; </text>
			<text transform="matrix(1 0 0 1 604.6406 226.8164)" fill="#312D2A" font-family="'OracleSans-Regular'" font-size="16">hello-helidon-ingress</text>
			<path fill="none" stroke="#9E9892" d="M526,189.5h312c1.933,0,3.5,1.567,3.5,3.5v40c0,1.934-1.567,3.5-3.5,3.5H526
				c-1.933,0-3.5-1.566-3.5-3.5v-40C522.5,191.067,524.067,189.5,526,189.5z"/>
		</g>
		<path id="Vector_95" fill="#312D2A" d="M682.707,47.293c-0.39-0.391-1.024-0.391-1.414,0l-6.364,6.364
			c-0.391,0.391-0.391,1.024,0,1.415c0.391,0.39,1.024,0.39,1.414,0L682,49.414l5.657,5.657c0.39,0.39,1.023,0.39,1.414,0
			c0.391-0.391,0.391-1.024,0-1.415L682.707,47.293z M682,108v1h1v-1H682z M681,48v60h2V48H681z M682,107h-92.809v2H682V107z
			 M589.191,107H536v2h53.191V107z"/>
		<path id="Vector_96" fill="#312D2A" d="M682.707,189.707c-0.39,0.391-1.024,0.391-1.414,0l-6.364-6.364
			c-0.391-0.39-0.391-1.024,0-1.414c0.391-0.391,1.024-0.391,1.414,0l5.657,5.657l5.657-5.657c0.39-0.391,1.023-0.391,1.414,0
			c0.391,0.39,0.391,1.024,0,1.414L682.707,189.707z M682,132v-1h1v1H682z M681,189v-57h2v57H681z M682,133h-92.809v-2H682V133z
			 M589.191,133H536v-2h53.191V133z"/>
		<path id="Vector_97" fill="#312D2A" d="M153.293,47.293c0.39-0.391,1.024-0.391,1.414,0l6.364,6.364
			c0.391,0.391,0.391,1.024,0,1.415c-0.39,0.39-1.024,0.39-1.414,0L154,49.414l-5.657,5.657c-0.39,0.39-1.024,0.39-1.414,0
			c-0.391-0.391-0.391-1.024,0-1.415L153.293,47.293z M154,108v1h-1v-1H154z M155,48v60h-2V48H155z M154,107h97.894v2H154V107z
			 M251.894,107H308v2h-56.106V107z"/>
		<path id="Vector_98" fill="#312D2A" d="M153.293,189.707c0.39,0.391,1.024,0.391,1.414,0l6.364-6.364
			c0.391-0.39,0.391-1.024,0-1.414c-0.39-0.391-1.024-0.391-1.414,0L154,187.586l-5.657-5.657c-0.39-0.391-1.024-0.391-1.414,0
			c-0.391,0.39-0.391,1.024,0,1.414L153.293,189.707z M154,132v-1h-1v1H154z M155,189v-57h-2v57H155z M154,133h97.894v-2H154V133z
			 M251.894,133H308v-2h-56.106V133z"/>
		<g id="Text_Block_x5F_5">
			<path fill="#E4E1DD" d="M526,0.5h312c1.933,0,3.5,1.567,3.5,3.5v40c0,1.933-1.567,3.5-3.5,3.5H526c-1.933,0-3.5-1.567-3.5-3.5V4
				C522.5,2.067,524.067,0.5,526,0.5z"/>
			<text transform="matrix(1 0 0 1 621.2344 21.8164)" fill="#312D2A" font-family="'OracleSans-Italic'" font-size="16">&lt;&lt;component&gt;&gt; </text>
			<text transform="matrix(1 0 0 1 589.0703 37.8164)" fill="#312D2A" font-family="'OracleSans-Regular'" font-size="16">hello-helidon-component</text>
			<path fill="none" stroke="#9E9892" d="M526,0.5h312c1.933,0,3.5,1.567,3.5,3.5v40c0,1.933-1.567,3.5-3.5,3.5H526
				c-1.933,0-3.5-1.567-3.5-3.5V4C522.5,2.067,524.067,0.5,526,0.5z"/>
		</g>
		<g id="Connector_Line_Label">
			<rect x="213" y="101" fill="#FFFFFF" width="43" height="14"/>
			<text transform="matrix(1 0 0 1 217.1299 113.0889)" fill="#312D2A" font-family="'OracleSans-Regular'" font-size="14">reads</text>
		</g>
		<g id="Connector_Line_Label_x5F_2">
			<rect x="583" y="101" fill="#FFFFFF" width="43" height="14"/>
			<text transform="matrix(1 0 0 1 587.1299 113.0889)" fill="#312D2A" font-family="'OracleSans-Regular'" font-size="14">reads</text>
		</g>
		<g id="Connector_Line_Label_x5F_3">
			<rect x="211" y="125" fill="#FFFFFF" width="46" height="14"/>
			<text transform="matrix(1 0 0 1 215.1191 137.0889)" fill="#312D2A" font-family="'OracleSans-Regular'" font-size="14">writes</text>
		</g>
		<g id="Start_x2F_End_x5F_2">
			<path id="Rectangle_705_x5F_2" fill="#DBC9E5" stroke="#9E9892" d="M303,284.5h234c12.979,0,23.5,10.521,23.5,23.5l0,0
				c0,12.979-10.521,23.5-23.5,23.5H303c-12.979,0-23.5-10.521-23.5-23.5l0,0C279.5,295.021,290.021,284.5,303,284.5z"/>
			<text transform="matrix(1 0 0 1 371.9419 304.6553)" fill="#312D2A" font-family="'OracleSans-Italic'" font-size="16">&lt;&lt;operator&gt;&gt; </text>
			<text transform="matrix(1 0 0 1 305.0981 320.6553)" fill="#312D2A" font-family="'OracleSans-Regular'" font-size="16">verrazzano-application-operator</text>
		</g>
		<g id="Connector_Line_Label_x5F_4">
			<rect x="580" y="124" fill="#FFFFFF" width="46" height="14"/>
			<text transform="matrix(1 0 0 1 584.1191 136.0889)" fill="#312D2A" font-family="'OracleSans-Regular'" font-size="14">writes</text>
		</g>
		<g id="Text_Block_x5F_6">
			<path fill="#E4E1DD" d="M526,378.5h312c1.933,0,3.5,1.566,3.5,3.5v40c0,1.933-1.567,3.5-3.5,3.5H526c-1.933,0-3.5-1.567-3.5-3.5
				v-40C522.5,380.066,524.067,378.5,526,378.5z"/>
			<text transform="matrix(1 0 0 1 614.375 399.8164)" fill="#312D2A" font-family="'OracleSans-Italic'" font-size="16">&lt;&lt;virtualservice&gt;&gt; </text>
			<text transform="matrix(1 0 0 1 571.6172 415.8164)" fill="#312D2A" font-family="'OracleSans-Regular'" font-size="16">hello-helidon-ingress-rule-0-v</text>
			<path fill="none" stroke="#9E9892" d="M526,378.5h312c1.933,0,3.5,1.566,3.5,3.5v40c0,1.933-1.567,3.5-3.5,3.5H526
				c-1.933,0-3.5-1.567-3.5-3.5v-40C522.5,380.066,524.067,378.5,526,378.5z"/>
		</g>
		<path id="Vector_99" fill="#312D2A" d="M682.707,236.293c-0.39-0.391-1.024-0.391-1.414,0l-6.364,6.364
			c-0.391,0.39-0.391,1.024,0,1.413c0.391,0.392,1.024,0.392,1.414,0l5.657-5.656l5.657,5.656c0.39,0.392,1.023,0.392,1.414,0
			c0.391-0.389,0.391-1.023,0-1.413L682.707,236.293z M682,297v1h1v-1H682z M681,237v60h2v-60H681z M682,296h-80.731v2H682V296z
			 M601.269,296H558v2h43.269V296z"/>
		<path id="Vector_100" fill="#312D2A" d="M682.707,378.707c-0.39,0.391-1.024,0.391-1.414,0l-6.364-6.364
			c-0.391-0.39-0.391-1.024,0-1.414c0.391-0.391,1.024-0.391,1.414,0l5.657,5.657l5.657-5.657c0.39-0.391,1.023-0.391,1.414,0
			c0.391,0.39,0.391,1.024,0,1.414L682.707,378.707z M682,321v-1h1v1H682z M681,378v-57h2v57H681z M682,322h-80.731v-2H682V322z
			 M601.269,322H557v-2h44.269V322z"/>
		<path id="Vector_101" fill="#312D2A" d="M153.293,236.293c0.39-0.391,1.024-0.391,1.414,0l6.364,6.364
			c0.391,0.39,0.391,1.024,0,1.413c-0.39,0.392-1.024,0.392-1.414,0L154,238.414l-5.657,5.656c-0.39,0.392-1.024,0.392-1.414,0
			c-0.391-0.389-0.391-1.023,0-1.413L153.293,236.293z M154,297v1h-1v-1H154z M155,237v60h-2v-60H155z M154,296h83.274v2H154V296z
			 M237.274,296H282v2h-44.726V296z"/>
		<path id="Vector_102" fill="#312D2A" d="M153.293,378.707c0.39,0.391,1.024,0.391,1.414,0l6.364-6.364
			c0.391-0.39,0.391-1.024,0-1.414c-0.39-0.391-1.024-0.391-1.414,0L154,376.586l-5.657-5.657c-0.39-0.391-1.024-0.391-1.414,0
			c-0.391,0.39-0.391,1.024,0,1.414L153.293,378.707z M154,321v-1h-1v1H154z M155,378v-57h-2v57H155z M154,322h83.274v-2H154V322z
			 M237.274,322H283v-2h-45.726V322z"/>
		<g id="Connector_Line_Label_x5F_5">
			<rect x="383" y="15" fill="#FFFFFF" width="74" height="14"/>
			<text transform="matrix(1 0 0 1 387.085 27.0889)" fill="#312D2A" font-family="'OracleSans-Regular'" font-size="14">references</text>
		</g>
		<g id="Connector_Line_Label_x5F_6">
			<rect x="213" y="290" fill="#FFFFFF" width="43" height="14"/>
			<text transform="matrix(1 0 0 1 217.1299 302.0889)" fill="#312D2A" font-family="'OracleSans-Regular'" font-size="14">reads</text>
		</g>
		<g id="Connector_Line_Label_x5F_7">
			<rect x="583" y="290" fill="#FFFFFF" width="43" height="14"/>
			<text transform="matrix(1 0 0 1 587.1299 302.0889)" fill="#312D2A" font-family="'OracleSans-Regular'" font-size="14">reads</text>
		</g>
		<g id="Connector_Line_Label_x5F_8">
			<rect x="211" y="314" fill="#FFFFFF" width="46" height="14"/>
			<text transform="matrix(1 0 0 1 215.1191 326.0889)" fill="#312D2A" font-family="'OracleSans-Regular'" font-size="14">writes</text>
		</g>
		<g id="Connector_Line_Label_x5F_9">
			<rect x="580" y="101" fill="#FFFFFF" width="8" height="14"/>
		</g>
		<g id="Connector_Line_Label_x5F_10">
			<rect x="580" y="313" fill="#FFFFFF" width="46" height="14"/>
			<text transform="matrix(1 0 0 1 584.1191 325.0889)" fill="#312D2A" font-family="'OracleSans-Regular'" font-size="14">writes</text>
		</g>
	</g>
</g>
</svg>
