<svg width="842" height="426" viewBox="0 0 842 426" fill="none" xmlns="http://www.w3.org/2000/svg">
<g id="hello-helidon" clip-path="url(#clip0_3445_135259)">
<rect width="842" height="426" fill="white"/>
<path id="Vector 22" d="M520.707 24.7071C521.098 24.3166 521.098 23.6834 520.707 23.2929L514.343 16.9289C513.953 16.5384 513.319 16.5384 512.929 16.9289C512.538 17.3195 512.538 17.9526 512.929 18.3432L518.586 24L512.929 29.6569C512.538 30.0474 512.538 30.6806 512.929 31.0711C513.319 31.4616 513.953 31.4616 514.343 31.0711L520.707 24.7071ZM320 25L520 25L520 23L320 23L320 25Z" fill="#161513"/>
<g id="Start/End">
<rect id="Rectangle 705" x="304.5" y="95.5" width="231" height="47" rx="23.5" fill="#D0EAC1" stroke="#5F7D4F"/>
<g id="Start">
<text fill="#312D2A" xml:space="preserve" style="white-space: pre" font-family="Oracle Sans" font-size="16" letter-spacing="0em"><tspan x="371.398" y="115.655">&#60;&#60;</tspan><tspan x="451.944" y="115.655">&#62;&#62;&#10;</tspan><tspan x="329.21" y="131.655">oam-kubernetes-runtime</tspan></text>
<text fill="#312D2A" xml:space="preserve" style="white-space: pre" font-family="Oracle Sans" font-size="16" font-style="italic" letter-spacing="0em"><tspan x="390.585" y="115.655">operator</tspan></text>
</g>
</g>
<path id="Vector 95" d="M682.707 47.2929C682.317 46.9024 681.683 46.9024 681.293 47.2929L674.929 53.6569C674.538 54.0474 674.538 54.6805 674.929 55.0711C675.319 55.4616 675.953 55.4616 676.343 55.0711L682 49.4142L687.657 55.0711C688.047 55.4616 688.681 55.4616 689.071 55.0711C689.462 54.6805 689.462 54.0474 689.071 53.6569L682.707 47.2929ZM682 108V109H683V108H682ZM681 48V108H683V48H681ZM682 107H589.191V109H682V107ZM589.191 107H536V109H589.191V107Z" fill="#312D2A"/>
<path id="Vector 96" d="M682.707 189.707C682.317 190.098 681.683 190.098 681.293 189.707L674.929 183.343C674.538 182.953 674.538 182.319 674.929 181.929C675.319 181.538 675.953 181.538 676.343 181.929L682 187.586L687.657 181.929C688.047 181.538 688.681 181.538 689.071 181.929C689.462 182.319 689.462 182.953 689.071 183.343L682.707 189.707ZM682 132V131H683V132H682ZM681 189V132H683V189H681ZM682 133H589.191V131H682V133ZM589.191 133H536V131H589.191V133Z" fill="#312D2A"/>
<path id="Vector 97" d="M153.293 47.2929C153.683 46.9024 154.317 46.9024 154.707 47.2929L161.071 53.6569C161.462 54.0474 161.462 54.6805 161.071 55.0711C160.681 55.4616 160.047 55.4616 159.657 55.0711L154 49.4142L148.343 55.0711C147.953 55.4616 147.319 55.4616 146.929 55.0711C146.538 54.6805 146.538 54.0474 146.929 53.6569L153.293 47.2929ZM154 108V109H153V108H154ZM155 48V108H153V48H155ZM154 107H251.894V109H154V107ZM251.894 107H308V109H251.894V107Z" fill="#312D2A"/>
<path id="Vector 98" d="M153.293 189.707C153.683 190.098 154.317 190.098 154.707 189.707L161.071 183.343C161.462 182.953 161.462 182.319 161.071 181.929C160.681 181.538 160.047 181.538 159.657 181.929L154 187.586L148.343 181.929C147.953 181.538 147.319 181.538 146.929 181.929C146.538 182.319 146.538 182.953 146.929 183.343L153.293 189.707ZM154 132V131H153V132H154ZM155 189V132H153V189H155ZM154 133H251.894V131H154V133ZM251.894 133H308V131H251.894V133Z" fill="#312D2A"/>
<g id="Connector Line Label">
<rect width="43" height="14" transform="translate(213 101)" fill="white"/>
<text id="Line Label" fill="#312D2A" xml:space="preserve" style="white-space: pre" font-family="Oracle Sans" font-size="14" letter-spacing="0em"><tspan x="217.13" y="113.089">reads</tspan></text>
</g>
<g id="Connector Line Label_2">
<rect width="43" height="14" transform="translate(583 101)" fill="white"/>
<text id="Line Label_2" fill="#312D2A" xml:space="preserve" style="white-space: pre" font-family="Oracle Sans" font-size="14" letter-spacing="0em"><tspan x="587.13" y="113.089">reads</tspan></text>
</g>
<g id="Connector Line Label_3">
<rect width="46" height="14" transform="translate(211 125)" fill="white"/>
<text id="Line Label_3" fill="#312D2A" xml:space="preserve" style="white-space: pre" font-family="Oracle Sans" font-size="14" letter-spacing="0em"><tspan x="215.119" y="137.089">writes</tspan></text>
</g>
<g id="Start/End_2">
<rect id="Rectangle 705_2" x="279.5" y="284.5" width="281" height="47" rx="23.5" fill="#D0EAC1" stroke="#5F7D4F"/>
<g id="Start_2">
<text fill="#312D2A" xml:space="preserve" style="white-space: pre" font-family="Oracle Sans" font-size="16" letter-spacing="0em"><tspan x="372.192" y="304.655">&#60;&#60;</tspan><tspan x="452.739" y="304.655">&#62;&#62;&#10;</tspan><tspan x="305.098" y="320.655">verrazzano-application-operator</tspan></text>
<text fill="#312D2A" xml:space="preserve" style="white-space: pre" font-family="Oracle Sans" font-size="16" font-style="italic" letter-spacing="0em"><tspan x="391.379" y="304.655">operator</tspan></text>
</g>
</g>
<g id="Connector Line Label_4">
<rect width="46" height="14" transform="translate(580 124)" fill="white"/>
<text id="Line Label_4" fill="#312D2A" xml:space="preserve" style="white-space: pre" font-family="Oracle Sans" font-size="14" letter-spacing="0em"><tspan x="584.119" y="136.089">writes</tspan></text>
</g>
<path id="Vector 99" d="M682.707 236.293C682.317 235.902 681.683 235.902 681.293 236.293L674.929 242.657C674.538 243.047 674.538 243.681 674.929 244.071C675.319 244.462 675.953 244.462 676.343 244.071L682 238.414L687.657 244.071C688.047 244.462 688.681 244.462 689.071 244.071C689.462 243.681 689.462 243.047 689.071 242.657L682.707 236.293ZM682 297V298H683V297H682ZM681 237V297H683V237H681ZM682 296H601.269V298H682V296ZM601.269 296H558V298H601.269V296Z" fill="#312D2A"/>
<path id="Vector 100" d="M682.707 378.707C682.317 379.098 681.683 379.098 681.293 378.707L674.929 372.343C674.538 371.953 674.538 371.319 674.929 370.929C675.319 370.538 675.953 370.538 676.343 370.929L682 376.586L687.657 370.929C688.047 370.538 688.681 370.538 689.071 370.929C689.462 371.319 689.462 371.953 689.071 372.343L682.707 378.707ZM682 321V320H683V321H682ZM681 378V321H683V378H681ZM682 322H601.269V320H682V322ZM601.269 322H557V320H601.269V322Z" fill="#312D2A"/>
<path id="Vector 101" d="M153.293 236.293C153.683 235.902 154.317 235.902 154.707 236.293L161.071 242.657C161.462 243.047 161.462 243.681 161.071 244.071C160.681 244.462 160.047 244.462 159.657 244.071L154 238.414L148.343 244.071C147.953 244.462 147.319 244.462 146.929 244.071C146.538 243.681 146.538 243.047 146.929 242.657L153.293 236.293ZM154 297V298H153V297H154ZM155 237V297H153V237H155ZM154 296H237.274V298H154V296ZM237.274 296H282V298H237.274V296Z" fill="#312D2A"/>
<path id="Vector 102" d="M153.293 378.707C153.683 379.098 154.317 379.098 154.707 378.707L161.071 372.343C161.462 371.953 161.462 371.319 161.071 370.929C160.681 370.538 160.047 370.538 159.657 370.929L154 376.586L148.343 370.929C147.953 370.538 147.319 370.538 146.929 370.929C146.538 371.319 146.538 371.953 146.929 372.343L153.293 378.707ZM154 321V320H153V321H154ZM155 378V321H153V378H155ZM154 322H237.274V320H154V322ZM237.274 322H283V320H237.274V322Z" fill="#312D2A"/>
<g id="Connector Line Label_5">
<rect width="74" height="14" transform="translate(383 15)" fill="white"/>
<text id="Line Label_5" fill="#312D2A" xml:space="preserve" style="white-space: pre" font-family="Oracle Sans" font-size="14" letter-spacing="0em"><tspan x="387.085" y="27.089">references</tspan></text>
</g>
<g id="Connector Line Label_6">
<rect width="43" height="14" transform="translate(213 290)" fill="white"/>
<text id="Line Label_6" fill="#312D2A" xml:space="preserve" style="white-space: pre" font-family="Oracle Sans" font-size="14" letter-spacing="0em"><tspan x="217.13" y="302.089">reads</tspan></text>
</g>
<g id="Connector Line Label_7">
<rect width="43" height="14" transform="translate(583 290)" fill="white"/>
<text id="Line Label_7" fill="#312D2A" xml:space="preserve" style="white-space: pre" font-family="Oracle Sans" font-size="14" letter-spacing="0em"><tspan x="587.13" y="302.089">reads</tspan></text>
</g>
<g id="Connector Line Label_8">
<rect width="46" height="14" transform="translate(211 314)" fill="white"/>
<text id="Line Label_8" fill="#312D2A" xml:space="preserve" style="white-space: pre" font-family="Oracle Sans" font-size="14" letter-spacing="0em"><tspan x="215.119" y="326.089">writes</tspan></text>
</g>
<g id="Connector Line Label_9">
<rect width="8" height="14" transform="translate(580 101)" fill="white"/>
</g>
<g id="Connector Line Label_10">
<rect width="46" height="14" transform="translate(580 313)" fill="white"/>
<text id="Line Label_9" fill="#312D2A" xml:space="preserve" style="white-space: pre" font-family="Oracle Sans" font-size="14" letter-spacing="0em"><tspan x="584.119" y="325.089">writes</tspan></text>
</g>
<g id="Text Heading">
<rect x="0.5" y="0.5" width="319" height="47" rx="3.5" fill="#FCEFCB"/>
<g id="Neutral Group Heading H3">
<text fill="#312D2A" xml:space="preserve" style="white-space: pre" font-family="Oracle Sans" font-size="16" letter-spacing="0em"><tspan x="52.8359" y="21.816">&#60;&#60;</tspan><tspan x="247.977" y="21.816">&#62;&#62;&#10;</tspan><tspan x="78.9219" y="37.816">hello-helidon-appconf</tspan></text>
<text fill="#312D2A" xml:space="preserve" style="white-space: pre" font-family="Oracle Sans" font-size="16" font-style="italic" letter-spacing="0em"><tspan x="72.0234" y="21.816">applicationconfiguration</tspan></text>
</g>
<rect x="0.5" y="0.5" width="319" height="47" rx="3.5" stroke="#DEB068"/>
</g>
<g id="Text Heading_2">
<rect x="0.5" y="189.5" width="319" height="47" rx="3.5" fill="#FCEFCB"/>
<g id="Neutral Group Heading H3_2">
<text fill="#312D2A" xml:space="preserve" style="white-space: pre" font-family="Oracle Sans" font-size="16" letter-spacing="0em"><tspan x="41.9219" y="210.816">&#60;&#60;</tspan><tspan x="258.891" y="210.816">&#62;&#62;&#10;</tspan><tspan x="75.4375" y="226.816">hello-helidon-workload</tspan></text>
<text fill="#312D2A" xml:space="preserve" style="white-space: pre" font-family="Oracle Sans" font-size="16" font-style="italic" letter-spacing="0em"><tspan x="61.1094" y="210.816">verrazzanohelidonworkload</tspan></text>
</g>
<rect x="0.5" y="189.5" width="319" height="47" rx="3.5" stroke="#DEB068"/>
</g>
<g id="Text Heading_3">
<rect x="0.5" y="378.5" width="319" height="47" rx="3.5" fill="#FCEFCB"/>
<g id="Neutral Group Heading H3_3">
<text fill="#312D2A" xml:space="preserve" style="white-space: pre" font-family="Oracle Sans" font-size="16" letter-spacing="0em"><tspan x="98.6172" y="399.816">&#60;&#60;</tspan><tspan x="202.195" y="399.816">&#62;&#62;&#10;</tspan><tspan x="65.4062" y="415.816">hello-helidon-deployment</tspan></text>
<text fill="#312D2A" xml:space="preserve" style="white-space: pre" font-family="Oracle Sans" font-size="16" font-style="italic" letter-spacing="0em"><tspan x="117.805" y="399.816">deployment</tspan></text>
</g>
<rect x="0.5" y="378.5" width="319" height="47" rx="3.5" stroke="#DEB068"/>
</g>
<g id="Text Heading_4">
<rect x="522.5" y="0.5" width="319" height="47" rx="3.5" fill="#FCEFCB"/>
<g id="Neutral Group Heading H3_4">
<text fill="#312D2A" xml:space="preserve" style="white-space: pre" font-family="Oracle Sans" font-size="16" letter-spacing="0em"><tspan x="622.156" y="21.816">&#60;&#60;</tspan><tspan x="722.656" y="21.816">&#62;&#62;&#10;</tspan><tspan x="589.07" y="37.816">hello-helidon-component</tspan></text>
<text fill="#312D2A" xml:space="preserve" style="white-space: pre" font-family="Oracle Sans" font-size="16" font-style="italic" letter-spacing="0em"><tspan x="641.344" y="21.816">component</tspan></text>
</g>
<rect x="522.5" y="0.5" width="319" height="47" rx="3.5" stroke="#DEB068"/>
</g>
<g id="Text Heading_5">
<rect x="522.5" y="189.5" width="319" height="47" rx="3.5" fill="#FCEFCB"/>
<g id="Neutral Group Heading H3_5">
<text fill="#312D2A" xml:space="preserve" style="white-space: pre" font-family="Oracle Sans" font-size="16" letter-spacing="0em"><tspan x="619.07" y="210.816">&#60;&#60;</tspan><tspan x="725.742" y="210.816">&#62;&#62;&#10;</tspan><tspan x="604.641" y="226.816">hello-helidon-ingress</tspan></text>
<text fill="#312D2A" xml:space="preserve" style="white-space: pre" font-family="Oracle Sans" font-size="16" font-style="italic" letter-spacing="0em"><tspan x="638.258" y="210.816">ingressstrait</tspan></text>
</g>
<rect x="522.5" y="189.5" width="319" height="47" rx="3.5" stroke="#DEB068"/>
</g>
<g id="Text Heading_6">
<rect x="522.5" y="378.5" width="319" height="47" rx="3.5" fill="#FCEFCB"/>
<g id="Neutral Group Heading H3_6">
<text fill="#312D2A" xml:space="preserve" style="white-space: pre" font-family="Oracle Sans" font-size="16" letter-spacing="0em"><tspan x="614.453" y="399.816">&#60;&#60;</tspan><tspan x="730.359" y="399.816">&#62;&#62;&#10;</tspan><tspan x="571.617" y="415.816">hello-helidon-ingress-rule-0-v</tspan></text>
<text fill="#312D2A" xml:space="preserve" style="white-space: pre" font-family="Oracle Sans" font-size="16" font-style="italic" letter-spacing="0em"><tspan x="633.641" y="399.816">virtualservice</tspan></text>
</g>
<rect x="522.5" y="378.5" width="319" height="47" rx="3.5" stroke="#DEB068"/>
</g>
</g>
<defs>
<clipPath id="clip0_3445_135259">
<rect width="842" height="426" fill="white"/>
</clipPath>
</defs>
</svg>
