<?xml version="1.0" encoding="UTF-8" standalone="no"?><svg xmlns="http://www.w3.org/2000/svg" xmlns:xlink="http://www.w3.org/1999/xlink" contentScriptType="application/ecmascript" contentStyleType="text/css" height="585px" preserveAspectRatio="none" style="width:561px;height:585px;background:#FFFFFF;" version="1.1" viewBox="0 0 561 585" width="561px" zoomAndPan="magnify"><defs><filter height="300%" id="fdjhwkr80fwey" width="300%" x="-1" y="-1"><feGaussianBlur result="blurOut" stdDeviation="2.0"/><feColorMatrix in="blurOut" result="blurOut2" type="matrix" values="0 0 0 0 0 0 0 0 0 0 0 0 0 0 0 0 0 0 .4 0"/><feOffset dx="4.0" dy="4.0" in="blurOut2" result="blurOut3"/><feBlend in="SourceGraphic" in2="blurOut3" mode="normal"/></filter></defs><g><!--MD5=[f83ae91a690dfc657e1c5fbbd818f13d]
entity a--><polygon fill="#FEFECE" filter="url(#fdjhwkr80fwey)" points="16,6,16,58.9766,219,58.9766,219,16,209,6,16,6" style="stroke:#000000;stroke-width:1.5;"/><path d="M209,6 L209,16 L219,16 " fill="#FEFECE" style="stroke:#000000;stroke-width:1.5;"/><text fill="#000000" font-family="sans-serif" font-size="14" font-style="italic" lengthAdjust="spacing" textLength="183" x="26" y="29.5352">«applicationconfiguration»</text><text fill="#000000" font-family="sans-serif" font-size="14" lengthAdjust="spacing" textLength="158" x="38.5" y="46.0234">hello-helidon-appconf</text><!--MD5=[8e9b2d9d80e066cced8e5d90e9bdea61]
entity c--><polygon fill="#FEFECE" filter="url(#fdjhwkr80fwey)" points="320.5,6,320.5,58.9766,520.5,58.9766,520.5,16,510.5,6,320.5,6" style="stroke:#000000;stroke-width:1.5;"/><path d="M510.5,6 L510.5,16 L520.5,16 " fill="#FEFECE" style="stroke:#000000;stroke-width:1.5;"/><text fill="#000000" font-family="sans-serif" font-size="14" font-style="italic" lengthAdjust="spacing" textLength="92" x="374.5" y="29.5352">«component»</text><text fill="#000000" font-family="sans-serif" font-size="14" lengthAdjust="spacing" textLength="180" x="330.5" y="46.0234">hello-helidon-component</text><!--MD5=[4b52362e67c82d91eba5cb75921775cc]
entity t--><polygon fill="#FEFECE" filter="url(#fdjhwkr80fwey)" points="328.5,266,328.5,318.9766,500.5,318.9766,500.5,276,490.5,266,328.5,266" style="stroke:#000000;stroke-width:1.5;"/><path d="M490.5,266 L490.5,276 L500.5,276 " fill="#FEFECE" style="stroke:#000000;stroke-width:1.5;"/><text fill="#000000" font-family="sans-serif" font-size="14" font-style="italic" lengthAdjust="spacing" textLength="92" x="368.5" y="289.5352">«ingresstrait»</text><text fill="#000000" font-family="sans-serif" font-size="14" lengthAdjust="spacing" textLength="152" x="338.5" y="306.0234">hello-helidon-ingress</text><!--MD5=[2d611726bd9fad7d9bb2742aefb86083]
entity v--><polygon fill="#FEFECE" filter="url(#fdjhwkr80fwey)" points="305,526,305,578.9766,544,578.9766,544,536,534,526,305,526" style="stroke:#000000;stroke-width:1.5;"/><path d="M534,526 L534,536 L544,536 " fill="#FEFECE" style="stroke:#000000;stroke-width:1.5;"/><text fill="#000000" font-family="sans-serif" font-size="14" font-style="italic" lengthAdjust="spacing" textLength="104" x="372.5" y="549.5352">«virtualservice»</text><text fill="#000000" font-family="sans-serif" font-size="14" lengthAdjust="spacing" textLength="219" x="315" y="566.0234">hello-helidon-ingress-rule-0-v</text><!--MD5=[5b15d04c6eb656314d90c943872e8a65]
entity w--><polygon fill="#FEFECE" filter="url(#fdjhwkr80fwey)" points="66,266,66,318.9766,293,318.9766,293,276,283,266,66,266" style="stroke:#000000;stroke-width:1.5;"/><path d="M283,266 L283,276 L293,276 " fill="#FEFECE" style="stroke:#000000;stroke-width:1.5;"/><text fill="#000000" font-family="sans-serif" font-size="14" font-style="italic" lengthAdjust="spacing" textLength="207" x="76" y="289.5352">«verrazzanohelidonworkload»</text><text fill="#000000" font-family="sans-serif" font-size="14" lengthAdjust="spacing" textLength="166" x="96.5" y="306.0234">hello-helidon-workload</text><!--MD5=[011db1d27274c86691871bc51b12beb8]
entity d--><polygon fill="#FEFECE" filter="url(#fdjhwkr80fwey)" points="67,526,67,578.9766,270,578.9766,270,536,260,526,67,526" style="stroke:#000000;stroke-width:1.5;"/><path d="M260,526 L260,536 L270,536 " fill="#FEFECE" style="stroke:#000000;stroke-width:1.5;"/><text fill="#000000" font-family="sans-serif" font-size="14" font-style="italic" lengthAdjust="spacing" textLength="95" x="121" y="549.5352">«deployment»</text><text fill="#000000" font-family="sans-serif" font-size="14" lengthAdjust="spacing" textLength="183" x="77" y="566.0234">hello-helidon-deployment</text><!--MD5=[b283f8c5782a4590d1197708180e3fa1]
entity oam--><rect fill="#90EE90" filter="url(#fdjhwkr80fwey)" height="52.9766" rx="35" ry="35" style="stroke:#000000;stroke-width:1.5;" width="197" x="198" y="136"/><text fill="#000000" font-family="sans-serif" font-size="14" font-style="italic" lengthAdjust="spacing" textLength="74" x="259.5" y="159.5352">«operator»</text><text fill="#000000" font-family="sans-serif" font-size="14" lengthAdjust="spacing" textLength="177" x="208" y="176.0234">oam-kubernetes-runtime</text><!--MD5=[c087bf4ee5d03d1e61903d5f48cdd62c]
entity vao--><rect fill="#90EE90" filter="url(#fdjhwkr80fwey)" height="52.9766" rx="35" ry="35" style="stroke:#000000;stroke-width:1.5;" width="249" x="172" y="396"/><text fill="#000000" font-family="sans-serif" font-size="14" font-style="italic" lengthAdjust="spacing" textLength="74" x="259.5" y="419.5352">«operator»</text><text fill="#000000" font-family="sans-serif" font-size="14" lengthAdjust="spacing" textLength="229" x="182" y="436.0234">verrazzano-application-operator</text><!--MD5=[d6047f197d3927fefc7f7c2751c9df28]
link a to c--><path d="M219.24,32.5 C250.04,32.5 283.92,32.5 314.96,32.5 " fill="none" id="a-to-c" style="stroke:#A80036;stroke-width:1.0;"/><polygon fill="#A80036" points="320.32,32.5,311.32,28.5,315.32,32.5,311.32,36.5,320.32,32.5" style="stroke:#A80036;stroke-width:1.0;"/><text fill="#000000" font-family="sans-serif" font-size="13" lengthAdjust="spacing" textLength="65" x="237.25" y="26.0684">references</text><!--MD5=[5e1a964886364071e7247df59c009b61]
reverse link a to oam--><path d="M157.39,62.03 C188.36,84.17 230.91,114.6 260.77,135.95 " fill="none" id="a-backto-oam" style="stroke:#A80036;stroke-width:1.0;"/><polygon fill="#A80036" points="153.29,59.1,158.2802,67.591,157.3558,62.0102,162.9366,61.0858,153.29,59.1" style="stroke:#A80036;stroke-width:1.0;"/><text fill="#000000" font-family="sans-serif" font-size="13" lengthAdjust="spacing" textLength="34" x="219.5" y="102.5684">reads</text><!--MD5=[9b9b73e850d36e6dc9fe19df873dd98c]
reverse link c to oam--><path d="M392.07,62.84 C370.69,84.91 341.68,114.86 321.25,135.95 " fill="none" id="c-backto-oam" style="stroke:#A80036;stroke-width:1.0;"/><polygon fill="#A80036" points="395.7,59.1,386.5661,62.7839,392.2222,62.6923,392.3138,68.3484,395.7,59.1" style="stroke:#A80036;stroke-width:1.0;"/><text fill="#000000" font-family="sans-serif" font-size="13" lengthAdjust="spacing" textLength="34" x="366.5" y="102.5684">reads</text><!--MD5=[d5aa276def67eeb934830d4f795b8528]
link oam to w--><path d="M273.1,189.1 C253.81,210.2 226.44,240.14 206.28,262.2 " fill="none" id="oam-to-w" style="stroke:#A80036;stroke-width:1.0;"/><polygon fill="#A80036" points="202.85,265.95,211.876,262.009,206.2247,262.2607,205.9731,256.6094,202.85,265.95" style="stroke:#A80036;stroke-width:1.0;"/><text fill="#000000" font-family="sans-serif" font-size="13" lengthAdjust="spacing" textLength="38" x="246.5" y="232.5684">writes</text><!--MD5=[d15a7ddd83b22a05724aa971e88183b4]
link oam to t--><path d="M320.1,189.1 C339.55,210.2 367.16,240.14 387.49,262.2 " fill="none" id="oam-to-t" style="stroke:#A80036;stroke-width:1.0;"/><polygon fill="#A80036" points="390.95,265.95,387.7892,256.6221,387.5604,262.2743,381.9082,262.0455,390.95,265.95" style="stroke:#A80036;stroke-width:1.0;"/><text fill="#000000" font-family="sans-serif" font-size="13" lengthAdjust="spacing" textLength="38" x="363.5" y="232.5684">writes</text><!--MD5=[425505b33a874653b9b2f14b7f394a26]
reverse link w to vao--><path d="M206.32,322.84 C226.5,344.91 253.87,374.86 273.15,395.95 " fill="none" id="w-backto-vao" style="stroke:#A80036;stroke-width:1.0;"/><polygon fill="#A80036" points="202.9,319.1,206.0427,328.434,206.2825,322.7822,211.9343,323.022,202.9,319.1" style="stroke:#A80036;stroke-width:1.0;"/><text fill="#000000" font-family="sans-serif" font-size="13" lengthAdjust="spacing" textLength="34" x="246.5" y="362.5684">reads</text><!--MD5=[ff5dc7fdeda05acdd58943ff129e2c0e]
reverse link t to vao--><path d="M387.45,322.84 C367.1,344.91 339.5,374.86 320.05,395.95 " fill="none" id="t-backto-vao" style="stroke:#A80036;stroke-width:1.0;"/><polygon fill="#A80036" points="390.9,319.1,381.8582,323.0045,387.5104,322.7757,387.7392,328.4279,390.9,319.1" style="stroke:#A80036;stroke-width:1.0;"/><text fill="#000000" font-family="sans-serif" font-size="13" lengthAdjust="spacing" textLength="34" x="363.5" y="362.5684">reads</text><!--MD5=[cfa00464e037de41ae326368280e25df]
link vao to d--><path d="M270.9,449.1 C249.8,470.2 219.86,500.14 197.8,522.2 " fill="none" id="vao-to-d" style="stroke:#A80036;stroke-width:1.0;"/><polygon fill="#A80036" points="194.05,525.95,203.2424,522.4145,197.5855,522.4145,197.5855,516.7576,194.05,525.95" style="stroke:#A80036;stroke-width:1.0;"/><text fill="#000000" font-family="sans-serif" font-size="13" lengthAdjust="spacing" textLength="38" x="241.5" y="492.5684">writes</text><!--MD5=[f8afb5ea42c94f14d346287e14b9dfb2]
link vao to v--><path d="M322.1,449.1 C343.2,470.2 373.14,500.14 395.2,522.2 " fill="none" id="vao-to-v" style="stroke:#A80036;stroke-width:1.0;"/><polygon fill="#A80036" points="398.95,525.95,395.4145,516.7576,395.4145,522.4145,389.7576,522.4145,398.95,525.95" style="stroke:#A80036;stroke-width:1.0;"/><text fill="#000000" font-family="sans-serif" font-size="13" lengthAdjust="spacing" textLength="38" x="368.5" y="492.5684">writes</text><!--MD5=[6ff7ac1daab0d0fd642d9e1d1d1c05df]
link w to t--><!--MD5=[dda5425b0f96e1211a8c645ac6fc55bf]
link d to v--><!--MD5=[d3af337b50d89bd4481248e661c0773d]
@startuml
' Copyright (c) 2020, 2021, Oracle and/or its affiliates.
' Licensed under the Universal Permissive License v 1.0 as shown at https://oss.oracle.com/licenses/upl.

file "hello-helidon-appconf" <<applicationconfiguration>> as a
file "hello-helidon-component" <<component>> as c
file "hello-helidon-ingress" <<ingresstrait>> as t
file "hello-helidon-ingress-rule-0-v" <<virtualservice>> as v
file "hello-helidon-workload" <<verrazzanohelidonworkload>> as w
file "hello-helidon-deployment" <<deployment>> as d

'Using storage for the oval shape
storage "oam-kubernetes-runtime" <<operator>> as oam #lightgreen
storage "verrazzano-application-operator" <<operator>> as vao #lightgreen

a -r-> c: references

oam -u-> a: reads
oam -u-> c: reads
oam -d-> w: writes
oam -d-> t: writes

vao -u-> w: reads
vao -u-> t: reads
vao -d-> d: writes
vao -d-> v: writes

'Hidden lines to adjust layout
w -[hidden]r- t
d -[hidden]r- v

@enduml

@startuml

file "hello-helidon-appconf" <<applicationconfiguration>> as a
file "hello-helidon-component" <<component>> as c
file "hello-helidon-ingress" <<ingresstrait>> as t
file "hello-helidon-ingress-rule-0-v" <<virtualservice>> as v
file "hello-helidon-workload" <<verrazzanohelidonworkload>> as w
file "hello-helidon-deployment" <<deployment>> as d

storage "oam-kubernetes-runtime" <<operator>> as oam #lightgreen
storage "verrazzano-application-operator" <<operator>> as vao #lightgreen

a -r-> c: references

oam -u-> a: reads
oam -u-> c: reads
oam -d-> w: writes
oam -d-> t: writes

vao -u-> w: reads
vao -u-> t: reads
vao -d-> d: writes
vao -d-> v: writes

w -[hidden]r- t
d -[hidden]r- v

@enduml

PlantUML version 1.2021.7(Sun May 23 08:40:07 EDT 2021)
(GPL source distribution)
Java Runtime: OpenJDK Runtime Environment
JVM: Dynamic Code Evolution 64-Bit Server VM
Default Encoding: UTF-8
Language: en
Country: US
--></g></svg>