<?xml version="1.0" encoding="UTF-8" standalone="no"?><svg xmlns="http://www.w3.org/2000/svg" xmlns:xlink="http://www.w3.org/1999/xlink" contentScriptType="application/ecmascript" contentStyleType="text/css" height="275px" preserveAspectRatio="none" style="width:536px;height:275px;background:#FFFFFF;" version="1.1" viewBox="0 0 536 275" width="536px" zoomAndPan="magnify"><defs><filter height="300%" id="ffiu8lydj5jnw" width="300%" x="-1" y="-1"><feGaussianBlur result="blurOut" stdDeviation="2.0"/><feColorMatrix in="blurOut" result="blurOut2" type="matrix" values="0 0 0 0 0 0 0 0 0 0 0 0 0 0 0 0 0 0 .4 0"/><feOffset dx="4.0" dy="4.0" in="blurOut2" result="blurOut3"/><feBlend in="SourceGraphic" in2="blurOut3" mode="normal"/></filter></defs><g><!--MD5=[f83ae91a690dfc657e1c5fbbd818f13d]
entity a--><polygon fill="#FEFECE" filter="url(#ffiu8lydj5jnw)" points="180.5,6,180.5,42.4883,378.5,42.4883,378.5,16,368.5,6,180.5,6" style="stroke:#000000;stroke-width:1.5;"/><path d="M368.5,6 L368.5,16 L378.5,16 " fill="#FEFECE" style="stroke:#000000;stroke-width:1.5;"/><text fill="#000000" font-family="sans-serif" font-size="14" lengthAdjust="spacing" textLength="178" x="190.5" y="29.5352">Application Configuration</text><!--MD5=[8e9b2d9d80e066cced8e5d90e9bdea61]
entity c--><polygon fill="#FEFECE" filter="url(#ffiu8lydj5jnw)" points="87.5,119,87.5,155.4883,195.5,155.4883,195.5,129,185.5,119,87.5,119" style="stroke:#000000;stroke-width:1.5;"/><path d="M185.5,119 L185.5,129 L195.5,129 " fill="#FEFECE" style="stroke:#000000;stroke-width:1.5;"/><text fill="#000000" font-family="sans-serif" font-size="14" lengthAdjust="spacing" textLength="88" x="97.5" y="142.5352">Components</text><!--MD5=[d8322213e5f4465576b8bf70cd9bce59]
entity s--><polygon fill="#FEFECE" filter="url(#ffiu8lydj5jnw)" points="398.5,119,398.5,155.4883,466.5,155.4883,466.5,129,456.5,119,398.5,119" style="stroke:#000000;stroke-width:1.5;"/><path d="M456.5,119 L456.5,129 L466.5,129 " fill="#FEFECE" style="stroke:#000000;stroke-width:1.5;"/><text fill="#000000" font-family="sans-serif" font-size="14" lengthAdjust="spacing" textLength="48" x="408.5" y="142.5352">Scopes</text><!--MD5=[38ef3da207825949ac30c78e2f64fdaa]
entity wd--><polygon fill="#FEFECE" filter="url(#ffiu8lydj5jnw)" points="16,232,16,268.4883,179,268.4883,179,242,169,232,16,232" style="stroke:#000000;stroke-width:1.5;"/><path d="M169,232 L169,242 L179,242 " fill="#FEFECE" style="stroke:#000000;stroke-width:1.5;"/><text fill="#000000" font-family="sans-serif" font-size="14" lengthAdjust="spacing" textLength="143" x="26" y="255.5352">Workload Definitions</text><!--MD5=[1ea5fd73a26f9f32af22e79f493c5bf3]
entity td--><polygon fill="#FEFECE" filter="url(#ffiu8lydj5jnw)" points="214.5,232,214.5,268.4883,344.5,268.4883,344.5,242,334.5,232,214.5,232" style="stroke:#000000;stroke-width:1.5;"/><path d="M334.5,232 L334.5,242 L344.5,242 " fill="#FEFECE" style="stroke:#000000;stroke-width:1.5;"/><text fill="#000000" font-family="sans-serif" font-size="14" lengthAdjust="spacing" textLength="110" x="224.5" y="255.5352">Trait Definitions</text><!--MD5=[1865ce58b93b46dbf0f89b42133fbc97]
entity sd--><polygon fill="#FEFECE" filter="url(#ffiu8lydj5jnw)" points="380,232,380,268.4883,519,268.4883,519,242,509,232,380,232" style="stroke:#000000;stroke-width:1.5;"/><path d="M509,232 L509,242 L519,242 " fill="#FEFECE" style="stroke:#000000;stroke-width:1.5;"/><text fill="#000000" font-family="sans-serif" font-size="14" lengthAdjust="spacing" textLength="119" x="390" y="255.5352">Scope Definitions</text><!--MD5=[2d7fa8d5224bbe6308c8989facaf23eb]
link c to wd--><path d="M134.62,155.34 C126.97,174.65 114.59,205.89 106.25,226.93 " fill="none" id="c-to-wd" style="stroke:#A80036;stroke-width:1.0;"/><polygon fill="#A80036" points="104.33,231.78,111.3609,224.8832,106.1697,227.1308,103.9221,221.9396,104.33,231.78" style="stroke:#A80036;stroke-width:1.0;"/><text fill="#000000" font-family="sans-serif" font-size="13" lengthAdjust="spacing" textLength="65" x="123.5" y="198.5684">references</text><!--MD5=[c42cfdfc49c763897d0c6872bf50590e]
link s to sd--><path d="M435.16,155.34 C438.1,174.57 442.86,205.63 446.08,226.66 " fill="none" id="s-to-sd" style="stroke:#A80036;stroke-width:1.0;"/><polygon fill="#A80036" points="446.86,231.78,449.4512,222.2781,446.1029,226.8376,441.5434,223.4894,446.86,231.78" style="stroke:#A80036;stroke-width:1.0;"/><text fill="#000000" font-family="sans-serif" font-size="13" lengthAdjust="spacing" textLength="65" x="442.5" y="198.5684">references</text><!--MD5=[d6047f197d3927fefc7f7c2751c9df28]
link a to c--><path d="M235.13,42.02 C218.75,49.63 200.73,59.69 186.5,72 C172.75,83.89 161.07,100.85 153.06,114.32 " fill="none" id="a-to-c" style="stroke:#A80036;stroke-width:1.0;"/><polygon fill="#A80036" points="150.49,118.74,158.4693,112.9667,153.0014,114.4165,151.5516,108.9485,150.49,118.74" style="stroke:#A80036;stroke-width:1.0;"/><text fill="#000000" font-family="sans-serif" font-size="13" lengthAdjust="spacing" textLength="65" x="187.5" y="85.5684">references</text><!--MD5=[1a59db435e8b625de8b8ba931d6f0dc4]
link a to td--><path d="M279.5,42.2 C279.5,82.27 279.5,181.79 279.5,226.56 " fill="none" id="a-to-td" style="stroke:#A80036;stroke-width:1.0;"/><polygon fill="#A80036" points="279.5,231.74,283.5,222.74,279.5,226.74,275.5,222.74,279.5,231.74" style="stroke:#A80036;stroke-width:1.0;"/><text fill="#000000" font-family="sans-serif" font-size="13" lengthAdjust="spacing" textLength="65" x="280.5" y="142.0684">references</text><!--MD5=[97e51eccafb1f7bf03236bc375f9e7dc]
link a to s--><path d="M303.07,42.1 C330.47,61.98 375.65,94.76 404.73,115.85 " fill="none" id="a-to-s" style="stroke:#A80036;stroke-width:1.0;"/><polygon fill="#A80036" points="408.9,118.88,403.9579,110.3609,404.8508,115.9468,399.2648,116.8396,408.9,118.88" style="stroke:#A80036;stroke-width:1.0;"/><text fill="#000000" font-family="sans-serif" font-size="13" lengthAdjust="spacing" textLength="65" x="366.5" y="85.5684">references</text><!--MD5=[982f35ae20b9a8b5f0ed99e64105b1f0]
link wd to td--><!--MD5=[b83cee3ac45183930b174ebf3878042c]
link td to sd--><!--MD5=[d650f285a769a639d3f1cf24d1addcce]
@startuml

file "Application Configuration" as a
file "Components" as c
file "Scopes" as s
file "Workload Definitions" as wd
file "Trait Definitions" as td
file "Scope Definitions" as sd

c -d-> wd: references
s -d-> sd: references

a -d-> c: references
a -d-> td: references
a -d-> s: references

wd -[hidden]r-> td
td -[hidden]r-> sd

@enduml

PlantUML version 1.2021.7(Sun May 23 08:40:07 EDT 2021)
(GPL source distribution)
Java Runtime: OpenJDK Runtime Environment
JVM: Dynamic Code Evolution 64-Bit Server VM
Default Encoding: UTF-8
Language: en
Country: US
--></g></svg>