<?xml version="1.0" encoding="utf-8"?>
<!-- Generator: Adobe Illustrator 16.0.0, SVG Export Plug-In . SVG Version: 6.00 Build 0)  -->
<!DOCTYPE svg PUBLIC "-//W3C//DTD SVG 1.1//EN" "http://www.w3.org/Graphics/SVG/1.1/DTD/svg11.dtd">
<svg version="1.1" id="Layer_1" xmlns="http://www.w3.org/2000/svg" xmlns:xlink="http://www.w3.org/1999/xlink" x="0px" y="0px"
	 width="1052px" height="536px" viewBox="0 0 1052 536" enable-background="new 0 0 1052 536" xml:space="preserve">
<g>
	<defs>
		<rect id="SVGID_1_" width="1052" height="536"/>
	</defs>
	<clipPath id="SVGID_2_">
		<use xlink:href="#SVGID_1_"  overflow="visible"/>
	</clipPath>
	<g id="oam-flow" clip-path="url(#SVGID_2_)">
		<rect fill="#FFFFFF" width="1052" height="536"/>
		<path id="Vector_22" fill="#161513" d="M392.707,115.707c0.391-0.39,0.391-1.024,0-1.414l-6.364-6.364
			c-0.39-0.391-1.023-0.391-1.414,0c-0.391,0.39-0.391,1.024,0,1.414l5.657,5.657l-5.657,5.657c-0.391,0.39-0.391,1.024,0,1.414
			c0.391,0.391,1.024,0.391,1.414,0L392.707,115.707z M192,116h200v-2H192V116z"/>
		<path id="Vector_104" fill="#161513" d="M558.707,133.293c-0.39-0.391-1.024-0.391-1.414,0l-6.364,6.364
			c-0.391,0.39-0.391,1.024,0,1.414c0.391,0.391,1.024,0.391,1.414,0l5.657-5.657l5.657,5.657c0.39,0.391,1.023,0.391,1.414,0
			c0.391-0.39,0.391-1.024,0-1.414L558.707,133.293z M559,191v-57h-2v57H559z"/>
		<path id="Vector_105" fill="#161513" d="M557.293,297.707c0.39,0.391,1.024,0.391,1.414,0l6.364-6.364
			c0.391-0.39,0.391-1.024,0-1.414c-0.391-0.391-1.024-0.391-1.414,0L558,295.586l-5.657-5.657c-0.39-0.391-1.023-0.391-1.414,0
			c-0.391,0.39-0.391,1.024,0,1.414L557.293,297.707z M559,297v-57h-2v57H559z"/>
		<path id="Vector_107" fill="#161513" d="M559.707,333.293c-0.39-0.391-1.024-0.391-1.414,0l-6.364,6.364
			c-0.391,0.39-0.391,1.024,0,1.414c0.391,0.391,1.024,0.391,1.414,0l5.657-5.657l5.657,5.657c0.39,0.391,1.023,0.391,1.414,0
			c0.391-0.39,0.391-1.024,0-1.414L559.707,333.293z M560,391v-57h-2v57H560z"/>
		<path id="Vector_110" fill="#161513" d="M292.707,333.293c-0.39-0.391-1.024-0.391-1.414,0l-6.364,6.364
			c-0.391,0.39-0.391,1.024,0,1.414c0.39,0.391,1.024,0.391,1.414,0l5.657-5.657l5.657,5.657c0.39,0.391,1.024,0.391,1.414,0
			c0.391-0.39,0.391-1.024,0-1.414L292.707,333.293z M293,391v-57h-2v57H293z"/>
		<path id="Vector_111" fill="#161513" d="M291.293,498.707c0.39,0.391,1.024,0.391,1.414,0l6.364-6.364
			c0.391-0.39,0.391-1.023,0-1.414c-0.39-0.391-1.024-0.391-1.414,0L292,496.586l-5.657-5.657c-0.39-0.391-1.024-0.391-1.414,0
			c-0.391,0.391-0.391,1.024,0,1.414L291.293,498.707z M293,498v-57h-2v57H293z"/>
		<path id="Vector_112" fill="#161513" d="M557.293,498.707c0.39,0.391,1.024,0.391,1.414,0l6.364-6.364
			c0.391-0.39,0.391-1.023,0-1.414s-1.024-0.391-1.414,0L558,496.586l-5.657-5.657c-0.39-0.391-1.023-0.391-1.414,0
			s-0.391,1.024,0,1.414L557.293,498.707z M559,498v-57h-2v57H559z"/>
		<path id="Vector_113" fill="#161513" d="M823.293,498.707c0.39,0.391,1.024,0.391,1.414,0l6.364-6.364
			c0.391-0.39,0.391-1.023,0-1.414s-1.024-0.391-1.414,0L824,496.586l-5.657-5.657c-0.39-0.391-1.023-0.391-1.414,0
			s-0.391,1.024,0,1.414L823.293,498.707z M825,498v-57h-2v57H825z"/>
		<path id="Vector_108" fill="#161513" d="M824,315v-1h-1v1H824z M1012,315v1h1v-1H1012z M1012.71,133.293
			c-0.39-0.391-1.03-0.391-1.42,0l-6.36,6.364c-0.39,0.39-0.39,1.024,0,1.414c0.391,0.391,1.021,0.391,1.41,0l5.66-5.657l5.66,5.657
			c0.39,0.391,1.02,0.391,1.41,0c0.39-0.39,0.39-1.024,0-1.414L1012.71,133.293z M825,391v-76h-2v76H825z M824,316h188v-2H824V316z
			 M1013,315V134h-2v181H1013z"/>
		<path id="Vector_103" fill="#161513" d="M914.707,115.707c0.391-0.39,0.391-1.024,0-1.414l-6.364-6.364
			c-0.39-0.391-1.023-0.391-1.414,0c-0.391,0.39-0.391,1.024,0,1.414l5.657,5.657l-5.657,5.657c-0.391,0.39-0.391,1.024,0,1.414
			c0.391,0.391,1.024,0.391,1.414,0L914.707,115.707z M714,116h200v-2H714V116z"/>
		<g id="Text_Block">
			<path fill="#E4E1DD" d="M4,96.5h184c1.933,0,3.5,1.567,3.5,3.5v29c0,1.933-1.567,3.5-3.5,3.5H4c-1.933,0-3.5-1.567-3.5-3.5v-29
				C0.5,98.067,2.067,96.5,4,96.5z"/>
			<text transform="matrix(1 0 0 1 53.2031 117.8164)" fill="#312D2A" font-family="'OracleSans-Regular'" font-size="16">Component</text>
			<path fill="none" stroke="#9E9892" d="M4,96.5h184c1.933,0,3.5,1.567,3.5,3.5v29c0,1.933-1.567,3.5-3.5,3.5H4
				c-1.933,0-3.5-1.567-3.5-3.5v-29C0.5,98.067,2.067,96.5,4,96.5z"/>
		</g>
		<g id="Text_Block_x5F_2">
			<path fill="#E4E1DD" d="M920,96.5h128c1.933,0,3.5,1.567,3.5,3.5v29c0,1.933-1.567,3.5-3.5,3.5H920c-1.933,0-3.5-1.567-3.5-3.5
				v-29C916.5,98.067,918.067,96.5,920,96.5z"/>
			<text transform="matrix(1 0 0 1 961.9844 117.8164)" fill="#312D2A" font-family="'OracleSans-Regular'" font-size="16">Scope</text>
			<path fill="none" stroke="#9E9892" d="M920,96.5h128c1.933,0,3.5,1.567,3.5,3.5v29c0,1.933-1.567,3.5-3.5,3.5H920
				c-1.933,0-3.5-1.567-3.5-3.5v-29C916.5,98.067,918.067,96.5,920,96.5z"/>
		</g>
		<g id="Text_Block_x5F_3">
			<path fill="#E4E1DD" d="M228,297h128c1.933,0,3.5,1.566,3.5,3.5v29c0,1.934-1.567,3.5-3.5,3.5H228c-1.933,0-3.5-1.566-3.5-3.5
				v-29C224.5,298.566,226.067,297,228,297z"/>
			<text transform="matrix(1 0 0 1 257.75 318.3164)" fill="#312D2A" font-family="'OracleSans-Regular'" font-size="16">Workload</text>
			<path fill="none" stroke="#9E9892" d="M228,297h128c1.933,0,3.5,1.566,3.5,3.5v29c0,1.934-1.567,3.5-3.5,3.5H228
				c-1.933,0-3.5-1.566-3.5-3.5v-29C224.5,298.566,226.067,297,228,297z"/>
		</g>
		<g id="Text_Block_x5F_4">
			<path fill="#E4E1DD" d="M494,297h128c1.933,0,3.5,1.566,3.5,3.5v29c0,1.934-1.567,3.5-3.5,3.5H494c-1.933,0-3.5-1.566-3.5-3.5
				v-29C490.5,298.566,492.067,297,494,297z"/>
			<text transform="matrix(1 0 0 1 541.9219 318.3164)" fill="#312D2A" font-family="'OracleSans-Regular'" font-size="16">Trait</text>
			<path fill="none" stroke="#9E9892" d="M494,297h128c1.933,0,3.5,1.566,3.5,3.5v29c0,1.934-1.567,3.5-3.5,3.5H494
				c-1.933,0-3.5-1.566-3.5-3.5v-29C490.5,298.566,492.067,297,494,297z"/>
		</g>
		<g id="Start_x2F_End">
			<path id="Rectangle_705" fill="#DBC9E5" stroke="#9E9892" d="M466,191.5h184c12.979,0,23.5,10.521,23.5,23.5l0,0
				c0,12.979-10.521,23.5-23.5,23.5H466c-12.979,0-23.5-10.521-23.5-23.5l0,0C442.5,202.021,453.021,191.5,466,191.5z"/>
			<text transform="matrix(1 0 0 1 468.1553 211.6553)" fill="#312D2A" font-family="'OracleSans-Regular'" font-size="16">ApplicationConfiguration </text>
			<text transform="matrix(1 0 0 1 523.0771 227.6553)" fill="#312D2A" font-family="'OracleSans-Regular'" font-size="16">Controller</text>
		</g>
		<g id="Start_x2F_End_x5F_2">
			<path id="Rectangle_705_x5F_2" fill="#DBC9E5" stroke="#9E9892" d="M200,392.5h184c12.979,0,23.5,10.521,23.5,23.5l0,0
				c0,12.979-10.521,23.5-23.5,23.5H200c-12.979,0-23.5-10.521-23.5-23.5l0,0C176.5,403.021,187.021,392.5,200,392.5z"/>
			<text transform="matrix(1 0 0 1 220.8662 420.6553)" fill="#312D2A" font-family="'OracleSans-Regular'" font-size="16">Workload Controller</text>
		</g>
		<g id="Start_x2F_End_x5F_3">
			<path id="Rectangle_705_x5F_3" fill="#DBC9E5" stroke="#9E9892" d="M466,392.5h184c12.979,0,23.5,10.521,23.5,23.5l0,0
				c0,12.979-10.521,23.5-23.5,23.5H466c-12.979,0-23.5-10.521-23.5-23.5l0,0C442.5,403.021,453.021,392.5,466,392.5z"/>
			<text transform="matrix(1 0 0 1 505.0381 420.6553)" fill="#312D2A" font-family="'OracleSans-Regular'" font-size="16">Trait Controller</text>
		</g>
		<g id="Start_x2F_End_x5F_4">
			<path id="Rectangle_705_x5F_4" fill="#DBC9E5" stroke="#9E9892" d="M732,392.5h184c12.979,0,23.5,10.521,23.5,23.5l0,0
				c0,12.979-10.521,23.5-23.5,23.5H732c-12.979,0-23.5-10.521-23.5-23.5l0,0C708.5,403.021,719.021,392.5,732,392.5z"/>
			<text transform="matrix(1 0 0 1 765.1016 420.6553)" fill="#312D2A" font-family="'OracleSans-Regular'" font-size="16">Scope Controller</text>
		</g>
		<path id="Vector_95" fill="#312D2A" d="M962.707,132.293c-0.39-0.391-1.024-0.391-1.414,0l-6.364,6.364
			c-0.391,0.39-0.391,1.024,0,1.414c0.391,0.391,1.024,0.391,1.414,0l5.657-5.657l5.657,5.657c0.39,0.391,1.023,0.391,1.414,0
			c0.391-0.39,0.391-1.024,0-1.414L962.707,132.293z M962,215.5l0.003,1l0.997-0.003V215.5H962z M778.925,215.5l0.002-1h-0.002
			V215.5z M870.462,215.75l-0.002,1h0.005L870.462,215.75z M961,133v82.5h2V133H961z M778.925,214.5H674v2h104.925V214.5z
			 M961.997,214.5l-91.537,0.25l0.005,2l91.538-0.25L961.997,214.5z M870.465,214.75l-91.538-0.25l-0.005,2l91.538,0.25
			L870.465,214.75z"/>
		<path id="Vector_97" fill="#312D2A" d="M96.293,133.293c0.391-0.391,1.023-0.391,1.414,0l6.364,6.364
			c0.391,0.39,0.391,1.024,0,1.414c-0.39,0.391-1.024,0.391-1.414,0L97,135.414l-5.657,5.657c-0.391,0.391-1.024,0.391-1.414,0
			c-0.391-0.39-0.391-1.024,0-1.414L96.293,133.293z M97,204v1h-1v-1H97z M98,134v70h-2v-70H98z M97,203h221.852v2H97V203z
			 M318.852,203H446v2H318.852V203z"/>
		<path id="Vector_98" fill="#312D2A" d="M291.293,297.707c0.39,0.391,1.024,0.391,1.414,0l6.364-6.364
			c0.391-0.39,0.391-1.024,0-1.414c-0.39-0.391-1.024-0.391-1.414,0L292,295.586l-5.657-5.657c-0.39-0.391-1.024-0.391-1.414,0
			c-0.391,0.39-0.391,1.024,0,1.414L291.293,297.707z M292,228v-1h-1v1H292z M293,297v-69h-2v69H293z M292,229h97.894v-2H292V229z
			 M389.894,229H446v-2h-56.106V229z"/>
		<g id="Text_Block_x5F_5">
			<path fill="#E4E1DD" d="M176,499.5h234c1.933,0,3.5,1.567,3.5,3.5v29c0,1.933-1.567,3.5-3.5,3.5H176c-1.933,0-3.5-1.567-3.5-3.5
				v-29C172.5,501.067,174.067,499.5,176,499.5z"/>
			<text transform="matrix(1 0 0 1 187.1089 520.8164)" fill="#312D2A" font-family="'OracleSans-Regular'" font-size="16">Workload Runtime Resources</text>
			<path fill="none" stroke="#9E9892" d="M176,499.5h234c1.933,0,3.5,1.567,3.5,3.5v29c0,1.933-1.567,3.5-3.5,3.5H176
				c-1.933,0-3.5-1.567-3.5-3.5v-29C172.5,501.067,174.067,499.5,176,499.5z"/>
		</g>
		<g id="Text_Block_x5F_6">
			<path fill="#E4E1DD" d="M398,96.5h312c1.933,0,3.5,1.567,3.5,3.5v29c0,1.933-1.567,3.5-3.5,3.5H398c-1.933,0-3.5-1.567-3.5-3.5
				v-29C394.5,98.067,396.067,96.5,398,96.5z"/>
			<text transform="matrix(1 0 0 1 461.4302 117.8164)" fill="#312D2A" font-family="'OracleSans-Regular'" font-size="16">Application Configuration</text>
			<path fill="none" stroke="#9E9892" d="M398,96.5h312c1.933,0,3.5,1.567,3.5,3.5v29c0,1.933-1.567,3.5-3.5,3.5H398
				c-1.933,0-3.5-1.567-3.5-3.5v-29C394.5,98.067,396.067,96.5,398,96.5z"/>
		</g>
		<g id="Text_Block_x5F_7">
			<path fill="#E4E1DD" d="M442,499.5h234c1.933,0,3.5,1.567,3.5,3.5v29c0,1.933-1.567,3.5-3.5,3.5H442c-1.933,0-3.5-1.567-3.5-3.5
				v-29C438.5,501.067,440.067,499.5,442,499.5z"/>
			<text transform="matrix(1 0 0 1 471.2813 520.8164)" fill="#312D2A" font-family="'OracleSans-Regular'" font-size="16">Trait Runtime Resources</text>
			<path fill="none" stroke="#9E9892" d="M442,499.5h234c1.933,0,3.5,1.567,3.5,3.5v29c0,1.933-1.567,3.5-3.5,3.5H442
				c-1.933,0-3.5-1.567-3.5-3.5v-29C438.5,501.067,440.067,499.5,442,499.5z"/>
		</g>
		<g id="Text_Block_x5F_8">
			<path fill="#E4E1DD" d="M708,499.5h234c1.933,0,3.5,1.567,3.5,3.5v29c0,1.933-1.567,3.5-3.5,3.5H708c-1.933,0-3.5-1.567-3.5-3.5
				v-29C704.5,501.067,706.067,499.5,708,499.5z"/>
			<text transform="matrix(1 0 0 1 731.3438 520.8164)" fill="#312D2A" font-family="'OracleSans-Regular'" font-size="16">Scope Runtime Resources</text>
			<path fill="none" stroke="#9E9892" d="M708,499.5h234c1.933,0,3.5,1.567,3.5,3.5v29c0,1.933-1.567,3.5-3.5,3.5H708
				c-1.933,0-3.5-1.567-3.5-3.5v-29C704.5,501.067,706.067,499.5,708,499.5z"/>
		</g>
		<g id="Connector_Line_Label">
			<rect x="536" y="156" fill="#FFFFFF" width="43" height="14"/>
			<text transform="matrix(1 0 0 1 540.1299 168.0889)" fill="#312D2A" font-family="'OracleSans-Regular'" font-size="14">reads</text>
		</g>
		<g id="Connector_Line_Label_x5F_2">
			<rect x="539" y="358" fill="#FFFFFF" width="43" height="14"/>
			<text transform="matrix(1 0 0 1 543.1299 370.0889)" fill="#312D2A" font-family="'OracleSans-Regular'" font-size="14">reads</text>
		</g>
		<g id="Connector_Line_Label_x5F_3">
			<rect x="269.5" y="458.5" fill="#FFFFFF" width="46" height="14"/>
			<text transform="matrix(1 0 0 1 273.6191 470.5889)" fill="#312D2A" font-family="'OracleSans-Regular'" font-size="14">writes</text>
		</g>
		<g id="Connector_Line_Label_x5F_4">
			<rect x="272" y="358" fill="#FFFFFF" width="43" height="14"/>
			<text transform="matrix(1 0 0 1 276.1299 370.0889)" fill="#312D2A" font-family="'OracleSans-Regular'" font-size="14">reads</text>
		</g>
		<g id="Connector_Line_Label_x5F_5">
			<rect x="272" y="197" fill="#FFFFFF" width="43" height="14"/>
			<text transform="matrix(1 0 0 1 276.1299 209.0889)" fill="#312D2A" font-family="'OracleSans-Regular'" font-size="14">reads</text>
		</g>
		<g id="Connector_Line_Label_x5F_6">
			<rect x="535.5" y="458.5" fill="#FFFFFF" width="46" height="14"/>
			<text transform="matrix(1 0 0 1 539.6191 470.5889)" fill="#312D2A" font-family="'OracleSans-Regular'" font-size="14">writes</text>
		</g>
		<g id="Connector_Line_Label_x5F_7">
			<rect x="801.5" y="458.5" fill="#FFFFFF" width="46" height="14"/>
			<text transform="matrix(1 0 0 1 805.6191 470.5889)" fill="#312D2A" font-family="'OracleSans-Regular'" font-size="14">writes</text>
		</g>
		<g id="Connector_Line_Label_x5F_8">
			<rect x="892" y="308" fill="#FFFFFF" width="43" height="14"/>
			<text transform="matrix(1 0 0 1 896.1299 320.0889)" fill="#312D2A" font-family="'OracleSans-Regular'" font-size="14">reads</text>
		</g>
		<g id="Connector_Line_Label_x5F_9">
			<rect x="536" y="262" fill="#FFFFFF" width="46" height="14"/>
			<text transform="matrix(1 0 0 1 540.1191 274.0889)" fill="#312D2A" font-family="'OracleSans-Regular'" font-size="14">writes</text>
		</g>
		<g id="Connector_Line_Label_x5F_10">
			<rect x="786" y="207" fill="#FFFFFF" width="59" height="14"/>
			<text transform="matrix(1 0 0 1 790.0293 219.0889)" fill="#312D2A" font-family="'OracleSans-Regular'" font-size="14">updates</text>
		</g>
		<g id="Connector_Line_Label_x5F_11">
			<rect x="349" y="221" fill="#FFFFFF" width="46" height="14"/>
			<text transform="matrix(1 0 0 1 353.1191 233.0889)" fill="#312D2A" font-family="'OracleSans-Regular'" font-size="14">writes</text>
		</g>
		<g id="Connector_Line_Label_x5F_12">
			<rect x="255" y="106" fill="#FFFFFF" width="74" height="14"/>
			<text transform="matrix(1 0 0 1 259.085 118.0889)" fill="#312D2A" font-family="'OracleSans-Regular'" font-size="14">references</text>
		</g>
		<g id="Connector_Line_Label_x5F_13">
			<rect x="777" y="106" fill="#FFFFFF" width="74" height="14"/>
			<text transform="matrix(1 0 0 1 781.085 118.0889)" fill="#312D2A" font-family="'OracleSans-Regular'" font-size="14">references</text>
		</g>
		<path id="Vector_106" fill="#161513" d="M99.707,38.293c-0.391-0.391-1.023-0.391-1.414,0l-6.364,6.364
			c-0.39,0.391-0.39,1.024,0,1.415c0.391,0.39,1.024,0.39,1.415,0L99,40.414l5.657,5.657c0.39,0.39,1.024,0.39,1.414,0
			c0.391-0.391,0.391-1.024,0-1.415L99.707,38.293z M100,96V39h-2v57H100z"/>
		<g id="Connector_Line_Label_x5F_14">
			<rect x="67" y="63" fill="#FFFFFF" width="62" height="14"/>
			<text transform="matrix(1 0 0 1 71.0801 75.0889)" fill="#312D2A" font-family="'OracleSans-Regular'" font-size="14">contains</text>
		</g>
		<g id="Text_Block_x5F_9">
			<path fill="#F5F4F2" d="M4,0.5h184c1.933,0,3.5,1.567,3.5,3.5v29c0,1.933-1.567,3.5-3.5,3.5H4c-1.933,0-3.5-1.567-3.5-3.5V4
				C0.5,2.067,2.067,0.5,4,0.5z"/>
			<text transform="matrix(1 0 0 1 61.75 21.8164)" fill="#312D2A" font-family="'OracleSans-Regular'" font-size="16">Workload</text>
			<path fill="none" stroke="#9E9892" d="M4,0.5h184c1.933,0,3.5,1.567,3.5,3.5v29c0,1.933-1.567,3.5-3.5,3.5H4
				c-1.933,0-3.5-1.567-3.5-3.5V4C0.5,2.067,2.067,0.5,4,0.5z"/>
		</g>
		<path id="Vector_109" fill="#161513" d="M557.707,38.293c-0.39-0.391-1.024-0.391-1.414,0l-6.364,6.364
			c-0.391,0.391-0.391,1.024,0,1.415c0.391,0.39,1.024,0.39,1.414,0L557,40.414l5.657,5.657c0.39,0.39,1.023,0.39,1.414,0
			c0.391-0.391,0.391-1.024,0-1.415L557.707,38.293z M558,96V39h-2v57H558z"/>
		<g id="Connector_Line_Label_x5F_15">
			<rect x="525" y="63" fill="#FFFFFF" width="62" height="14"/>
			<text transform="matrix(1 0 0 1 529.0801 75.0889)" fill="#312D2A" font-family="'OracleSans-Regular'" font-size="14">contains</text>
		</g>
		<g id="Text_Block_x5F_10">
			<path fill="#F5F4F2" d="M462,0.5h184c1.933,0,3.5,1.567,3.5,3.5v29c0,1.933-1.567,3.5-3.5,3.5H462c-1.933,0-3.5-1.567-3.5-3.5V4
				C458.5,2.067,460.067,0.5,462,0.5z"/>
			<text transform="matrix(1 0 0 1 537.9219 21.8164)" fill="#312D2A" font-family="'OracleSans-Regular'" font-size="16">Trait</text>
			<path fill="none" stroke="#9E9892" d="M462,0.5h184c1.933,0,3.5,1.567,3.5,3.5v29c0,1.933-1.567,3.5-3.5,3.5H462
				c-1.933,0-3.5-1.567-3.5-3.5V4C458.5,2.067,460.067,0.5,462,0.5z"/>
		</g>
	</g>
</g>
</svg>
