<?xml version="1.0" encoding="UTF-8" standalone="no"?><svg xmlns="http://www.w3.org/2000/svg" xmlns:xlink="http://www.w3.org/1999/xlink" contentScriptType="application/ecmascript" contentStyleType="text/css" height="615px" preserveAspectRatio="none" style="width:707px;height:615px;background:#FFFFFF;" version="1.1" viewBox="0 0 707 615" width="707px" zoomAndPan="magnify"><defs><filter height="300%" id="f1t3xktncibymk" width="300%" x="-1" y="-1"><feGaussianBlur result="blurOut" stdDeviation="2.0"/><feColorMatrix in="blurOut" result="blurOut2" type="matrix" values="0 0 0 0 0 0 0 0 0 0 0 0 0 0 0 0 0 0 .4 0"/><feOffset dx="4.0" dy="4.0" in="blurOut2" result="blurOut3"/><feBlend in="SourceGraphic" in2="blurOut3" mode="normal"/></filter></defs><g><!--MD5=[5b15d04c6eb656314d90c943872e8a65]
entity w--><rect fill="#D3D3D3" filter="url(#f1t3xktncibymk)" height="36.4883" style="stroke:#000000;stroke-width:1.5;" width="85" x="37.5" y="7"/><text fill="#000000" font-family="sans-serif" font-size="14" lengthAdjust="spacing" textLength="65" x="47.5" y="30.5352">Workload</text><!--MD5=[4b52362e67c82d91eba5cb75921775cc]
entity t--><rect fill="#D3D3D3" filter="url(#f1t3xktncibymk)" height="36.4883" style="stroke:#000000;stroke-width:1.5;" width="52" x="305" y="7"/><text fill="#000000" font-family="sans-serif" font-size="14" lengthAdjust="spacing" textLength="32" x="315" y="30.5352">Trait</text><!--MD5=[8e9b2d9d80e066cced8e5d90e9bdea61]
entity c--><polygon fill="#FEFECE" filter="url(#f1t3xktncibymk)" points="29.5,120,29.5,156.4883,130.5,156.4883,130.5,130,120.5,120,29.5,120" style="stroke:#000000;stroke-width:1.5;"/><path d="M120.5,120 L120.5,130 L130.5,130 " fill="#FEFECE" style="stroke:#000000;stroke-width:1.5;"/><text fill="#000000" font-family="sans-serif" font-size="14" lengthAdjust="spacing" textLength="81" x="39.5" y="143.5352">Component</text><!--MD5=[f83ae91a690dfc657e1c5fbbd818f13d]
entity a--><polygon fill="#FEFECE" filter="url(#f1t3xktncibymk)" points="232,120,232,156.4883,430,156.4883,430,130,420,120,232,120" style="stroke:#000000;stroke-width:1.5;"/><path d="M420,120 L420,130 L430,130 " fill="#FEFECE" style="stroke:#000000;stroke-width:1.5;"/><text fill="#000000" font-family="sans-serif" font-size="14" lengthAdjust="spacing" textLength="178" x="242" y="143.5352">Application Configuration</text><!--MD5=[d8322213e5f4465576b8bf70cd9bce59]
entity s--><polygon fill="#FEFECE" filter="url(#f1t3xktncibymk)" points="531.5,120,531.5,156.4883,592.5,156.4883,592.5,130,582.5,120,531.5,120" style="stroke:#000000;stroke-width:1.5;"/><path d="M582.5,120 L582.5,130 L592.5,130 " fill="#FEFECE" style="stroke:#000000;stroke-width:1.5;"/><text fill="#000000" font-family="sans-serif" font-size="14" lengthAdjust="spacing" textLength="41" x="541.5" y="143.5352">Scope</text><!--MD5=[293c3ca832c7a51fd3a58001a1884d35]
entity wi--><polygon fill="#FEFECE" filter="url(#f1t3xktncibymk)" points="187.5,346,187.5,382.4883,272.5,382.4883,272.5,356,262.5,346,187.5,346" style="stroke:#000000;stroke-width:1.5;"/><path d="M262.5,346 L262.5,356 L272.5,356 " fill="#FEFECE" style="stroke:#000000;stroke-width:1.5;"/><text fill="#000000" font-family="sans-serif" font-size="14" lengthAdjust="spacing" textLength="65" x="197.5" y="369.5352">Workload</text><!--MD5=[3ae3c4fcda79e9281b7e36fb82444fac]
entity ti--><polygon fill="#FEFECE" filter="url(#f1t3xktncibymk)" points="308,346,308,382.4883,360,382.4883,360,356,350,346,308,346" style="stroke:#000000;stroke-width:1.5;"/><path d="M350,346 L350,356 L360,356 " fill="#FEFECE" style="stroke:#000000;stroke-width:1.5;"/><text fill="#000000" font-family="sans-serif" font-size="14" lengthAdjust="spacing" textLength="32" x="318" y="369.5352">Trait</text><!--MD5=[9d403e8d464ed92489232c826cd3a1fa]
entity wr--><polygon fill="#FEFECE" filter="url(#f1t3xktncibymk)" points="16,572,16,608.4883,236,608.4883,236,582,226,572,16,572" style="stroke:#000000;stroke-width:1.5;"/><path d="M226,572 L226,582 L236,582 " fill="#FEFECE" style="stroke:#000000;stroke-width:1.5;"/><text fill="#000000" font-family="sans-serif" font-size="14" lengthAdjust="spacing" textLength="200" x="26" y="595.5352">Workload Runtime Resources</text><!--MD5=[edc2c29f12934937e9dee71e2d189b28]
entity tr--><polygon fill="#FEFECE" filter="url(#f1t3xktncibymk)" points="271.5,572,271.5,608.4883,458.5,608.4883,458.5,582,448.5,572,271.5,572" style="stroke:#000000;stroke-width:1.5;"/><path d="M448.5,572 L448.5,582 L458.5,582 " fill="#FEFECE" style="stroke:#000000;stroke-width:1.5;"/><text fill="#000000" font-family="sans-serif" font-size="14" lengthAdjust="spacing" textLength="167" x="281.5" y="595.5352">Trait Runtime Resources</text><!--MD5=[74d933e1d656676adfcd4a7f27d1afee]
entity sr--><polygon fill="#FEFECE" filter="url(#f1t3xktncibymk)" points="494,572,494,608.4883,690,608.4883,690,582,680,572,494,572" style="stroke:#000000;stroke-width:1.5;"/><path d="M680,572 L680,582 L690,582 " fill="#FEFECE" style="stroke:#000000;stroke-width:1.5;"/><text fill="#000000" font-family="sans-serif" font-size="14" lengthAdjust="spacing" textLength="176" x="504" y="595.5352">Scope Runtime Resources</text><!--MD5=[1c5ba14a582780a0070707c3598231a5]
entity ac--><rect fill="#90EE90" filter="url(#f1t3xktncibymk)" height="36.4883" rx="35" ry="35" style="stroke:#000000;stroke-width:1.5;" width="268" x="197" y="233"/><text fill="#000000" font-family="sans-serif" font-size="14" lengthAdjust="spacing" textLength="248" x="207" y="256.5352">ApplicationConfiguration Controller</text><!--MD5=[6526aea6544ce4a9b20e76fa099a9860]
entity wc--><rect fill="#90EE90" filter="url(#f1t3xktncibymk)" height="36.4883" rx="35" ry="35" style="stroke:#000000;stroke-width:1.5;" width="159" x="77.5" y="459"/><text fill="#000000" font-family="sans-serif" font-size="14" lengthAdjust="spacing" textLength="139" x="87.5" y="482.5352">Workload Controller</text><!--MD5=[0dc3a655c088fd6165ba4a37cb8fe693]
entity tc--><rect fill="#90EE90" filter="url(#f1t3xktncibymk)" height="36.4883" rx="35" ry="35" style="stroke:#000000;stroke-width:1.5;" width="126" x="302" y="459"/><text fill="#000000" font-family="sans-serif" font-size="14" lengthAdjust="spacing" textLength="106" x="312" y="482.5352">Trait Controller</text><!--MD5=[f6c8693f2725baec96dbc257309cbcf0]
entity sc--><rect fill="#90EE90" filter="url(#f1t3xktncibymk)" height="36.4883" rx="35" ry="35" style="stroke:#000000;stroke-width:1.5;" width="135" x="494.5" y="459"/><text fill="#000000" font-family="sans-serif" font-size="14" lengthAdjust="spacing" textLength="115" x="504.5" y="482.5352">Scope Controller</text><!--MD5=[7137262857b3fa3d6d3ebf148c822c8b]
reverse link w to c--><path d="M80,48.47 C80,69.55 80,100.6 80,119.78 " fill="none" id="w-backto-c" style="stroke:#A80036;stroke-width:1.0;"/><polygon fill="#A80036" points="80,43.34,76,52.34,80,48.34,84,52.34,80,43.34" style="stroke:#A80036;stroke-width:1.0;"/><text fill="#000000" font-family="sans-serif" font-size="13" lengthAdjust="spacing" textLength="54" x="81" y="86.5684">contains</text><!--MD5=[24a1c41941b62242ec71f745b03cda02]
reverse link t to a--><path d="M331,48.47 C331,69.55 331,100.6 331,119.78 " fill="none" id="t-backto-a" style="stroke:#A80036;stroke-width:1.0;"/><polygon fill="#A80036" points="331,43.34,327,52.34,331,48.34,335,52.34,331,43.34" style="stroke:#A80036;stroke-width:1.0;"/><text fill="#000000" font-family="sans-serif" font-size="13" lengthAdjust="spacing" textLength="54" x="332" y="86.5684">contains</text><!--MD5=[2e29441956a0cea2468521de1b1bf232]
reverse link c to a--><path d="M135.98,138 C164.17,138 199.21,138 231.77,138 " fill="none" id="c-backto-a" style="stroke:#A80036;stroke-width:1.0;"/><polygon fill="#A80036" points="130.79,138,139.79,142,135.79,138,139.79,134,130.79,138" style="stroke:#A80036;stroke-width:1.0;"/><text fill="#000000" font-family="sans-serif" font-size="13" lengthAdjust="spacing" textLength="65" x="148.75" y="131.5684">references</text><!--MD5=[97e51eccafb1f7bf03236bc375f9e7dc]
link a to s--><path d="M430.31,138 C464.47,138 500.56,138 526.3,138 " fill="none" id="a-to-s" style="stroke:#A80036;stroke-width:1.0;"/><polygon fill="#A80036" points="531.31,138,522.31,134,526.31,138,522.31,142,531.31,138" style="stroke:#A80036;stroke-width:1.0;"/><text fill="#000000" font-family="sans-serif" font-size="13" lengthAdjust="spacing" textLength="65" x="448.25" y="131.5684">references</text><!--MD5=[63eb523696b4d7cecf9bf3b25cea67d7]
reverse link a to ac--><path d="M331,161.47 C331,182.55 331,213.6 331,232.78 " fill="none" id="a-backto-ac" style="stroke:#A80036;stroke-width:1.0;"/><polygon fill="#A80036" points="331,156.34,327,165.34,331,161.34,335,165.34,331,156.34" style="stroke:#A80036;stroke-width:1.0;"/><text fill="#000000" font-family="sans-serif" font-size="13" lengthAdjust="spacing" textLength="34" x="332" y="199.5684">reads</text><!--MD5=[86b1a568124c3966cde6e7ee196af1a0]
reverse link c to ac--><path d="M123.47,158.22 C171.06,179.27 246.67,212.71 292.29,232.88 " fill="none" id="c-backto-ac" style="stroke:#A80036;stroke-width:1.0;"/><polygon fill="#A80036" points="118.67,156.1,125.274,163.4067,123.2402,158.128,128.5189,156.0943,118.67,156.1" style="stroke:#A80036;stroke-width:1.0;"/><text fill="#000000" font-family="sans-serif" font-size="13" lengthAdjust="spacing" textLength="34" x="222" y="199.5684">reads</text><!--MD5=[83c4edab81c16f2a0c1d16e1bef9ce3d]
link ac to wi--><path d="M313.23,269.07 C304.28,277.84 293.37,288.8 284,299 C271.27,312.85 257.62,329.05 247.22,341.68 " fill="none" id="ac-to-wi" style="stroke:#A80036;stroke-width:1.0;"/><polygon fill="#A80036" points="243.83,345.82,252.6357,341.4086,247.0055,341.9579,246.4562,336.3277,243.83,345.82" style="stroke:#A80036;stroke-width:1.0;"/><text fill="#000000" font-family="sans-serif" font-size="13" lengthAdjust="spacing" textLength="38" x="285" y="312.5684">writes</text><!--MD5=[0425c7577613809c006cc7fbacd4c73f]
link ac to ti--><path d="M331.47,269.34 C331.99,288.57 332.83,319.63 333.4,340.66 " fill="none" id="ac-to-ti" style="stroke:#A80036;stroke-width:1.0;"/><polygon fill="#A80036" points="333.53,345.78,337.2713,336.6694,333.3872,340.782,329.2746,336.8979,333.53,345.78" style="stroke:#A80036;stroke-width:1.0;"/><text fill="#000000" font-family="sans-serif" font-size="13" lengthAdjust="spacing" textLength="38" x="333" y="312.5684">writes</text><!--MD5=[eaaaf656101f720f2c01b451fa9fb8c8]
reverse link s to ac--><path d="M526.71,155.96 C483.37,176.78 410.28,211.91 366.74,232.83 " fill="none" id="s-backto-ac" style="stroke:#A80036;stroke-width:1.0;"/><polygon fill="#A80036" points="531.32,153.74,521.476,154.0488,526.8169,155.9129,524.9527,161.2538,531.32,153.74" style="stroke:#A80036;stroke-width:1.0;"/><text fill="#000000" font-family="sans-serif" font-size="13" lengthAdjust="spacing" textLength="50" x="461" y="199.5684">updates</text><!--MD5=[5dc07238699572711eb01729951c0d73]
reverse link wi to wc--><path d="M215.75,386.67 C201.88,407.75 181.1,439.36 168.33,458.78 " fill="none" id="wi-backto-wc" style="stroke:#A80036;stroke-width:1.0;"/><polygon fill="#A80036" points="218.59,382.34,210.3115,387.6754,215.8495,386.5221,217.0028,392.0601,218.59,382.34" style="stroke:#A80036;stroke-width:1.0;"/><text fill="#000000" font-family="sans-serif" font-size="13" lengthAdjust="spacing" textLength="34" x="199" y="425.5684">reads</text><!--MD5=[ca8b0c34eeded086a8eaa1dc8ccd0074]
link wc to wr--><path d="M152.16,495.34 C146.76,514.65 138.04,545.89 132.16,566.93 " fill="none" id="wc-to-wr" style="stroke:#A80036;stroke-width:1.0;"/><polygon fill="#A80036" points="130.81,571.78,137.081,564.1856,132.1534,566.9638,129.3752,562.0362,130.81,571.78" style="stroke:#A80036;stroke-width:1.0;"/><text fill="#000000" font-family="sans-serif" font-size="13" lengthAdjust="spacing" textLength="38" x="145" y="538.5684">writes</text><!--MD5=[f5e611662dd7b96a7f90a64d061c34c6]
reverse link ti to tc--><path d="M340.2,387.21 C346.09,408.28 354.81,439.52 360.19,458.78 " fill="none" id="ti-backto-tc" style="stroke:#A80036;stroke-width:1.0;"/><polygon fill="#A80036" points="338.84,382.34,337.4052,392.0838,340.1834,387.1562,345.111,389.9344,338.84,382.34" style="stroke:#A80036;stroke-width:1.0;"/><text fill="#000000" font-family="sans-serif" font-size="13" lengthAdjust="spacing" textLength="34" x="352" y="425.5684">reads</text><!--MD5=[ecdff68b43bcc7d991f1b8c993c618d8]
link tc to tr--><path d="M365,495.34 C365,514.57 365,545.63 365,566.66 " fill="none" id="tc-to-tr" style="stroke:#A80036;stroke-width:1.0;"/><polygon fill="#A80036" points="365,571.78,369,562.78,365,566.78,361,562.78,365,571.78" style="stroke:#A80036;stroke-width:1.0;"/><text fill="#000000" font-family="sans-serif" font-size="13" lengthAdjust="spacing" textLength="38" x="366" y="538.5684">writes</text><!--MD5=[35809e4d8eedb37b026dc5244884b185]
reverse link s to sc--><path d="M562,161.2 C562,224.12 562,402.68 562,458.86 " fill="none" id="s-backto-sc" style="stroke:#A80036;stroke-width:1.0;"/><polygon fill="#A80036" points="562,156.18,558,165.18,562,161.18,566,165.18,562,156.18" style="stroke:#A80036;stroke-width:1.0;"/><text fill="#000000" font-family="sans-serif" font-size="13" lengthAdjust="spacing" textLength="34" x="563" y="312.5684">reads</text><!--MD5=[06a691401efd8933022d559b0935f00a]
link sc to sr--><path d="M566.69,495.34 C571.91,514.65 580.35,545.89 586.03,566.93 " fill="none" id="sc-to-sr" style="stroke:#A80036;stroke-width:1.0;"/><polygon fill="#A80036" points="587.35,571.78,588.8459,562.0454,586.0368,566.9555,581.1267,564.1465,587.35,571.78" style="stroke:#A80036;stroke-width:1.0;"/><text fill="#000000" font-family="sans-serif" font-size="13" lengthAdjust="spacing" textLength="38" x="579" y="538.5684">writes</text><!--MD5=[09f50d3b157b2235e3c4a869c1977c9b]
link wi to ti--><!--MD5=[291a720b46dc4daafc9cbbe5de9cd2c2]
link tc to sc--><!--MD5=[7a547238446e883214457c038b5ea184]
@startuml

rectangle "Workload" as w #lightgrey
rectangle "Trait" as t #lightgrey
file "Component" as c
file "Application Configuration" as a
file "Scope" as s
file "Workload" as wi
file "Trait" as ti
file "Workload Runtime Resources" as wr
file "Trait Runtime Resources" as tr
file "Scope Runtime Resources" as sr

'Using storage for the oval shape
storage "ApplicationConfiguration Controller" as ac #lightgreen

storage "Workload Controller" as wc #lightgreen
storage "Trait Controller" as tc #lightgreen
storage "Scope Controller" as sc #lightgreen

c -u-> w: contains
a -u-> t: contains

a -l-> c: references
a -r-> s: references

ac -u-> a: reads
ac -u-> c: reads
ac -d-> wi: writes
ac -d-> ti: writes
ac -u-> s: updates

wc -u-> wi: reads
wc -d-> wr: writes

tc -u-> ti: reads
tc -d-> tr: writes

sc -u-> s: reads
sc -d-> sr: writes

'Hidden lines to adjust layout
wi -[hidden]r- ti
tc -[hidden]r- sc

@enduml

@startuml

rectangle "Workload" as w #lightgrey
rectangle "Trait" as t #lightgrey
file "Component" as c
file "Application Configuration" as a
file "Scope" as s
file "Workload" as wi
file "Trait" as ti
file "Workload Runtime Resources" as wr
file "Trait Runtime Resources" as tr
file "Scope Runtime Resources" as sr

storage "ApplicationConfiguration Controller" as ac #lightgreen

storage "Workload Controller" as wc #lightgreen
storage "Trait Controller" as tc #lightgreen
storage "Scope Controller" as sc #lightgreen

c -u-> w: contains
a -u-> t: contains

a -l-> c: references
a -r-> s: references

ac -u-> a: reads
ac -u-> c: reads
ac -d-> wi: writes
ac -d-> ti: writes
ac -u-> s: updates

wc -u-> wi: reads
wc -d-> wr: writes

tc -u-> ti: reads
tc -d-> tr: writes

sc -u-> s: reads
sc -d-> sr: writes

wi -[hidden]r- ti
tc -[hidden]r- sc

@enduml

PlantUML version 1.2021.7(Sun May 23 08:40:07 EDT 2021)
(GPL source distribution)
Java Runtime: OpenJDK Runtime Environment
JVM: Dynamic Code Evolution 64-Bit Server VM
Default Encoding: UTF-8
Language: en
Country: US
--></g></svg>