<?xml version="1.0" encoding="UTF-8" standalone="no"?><svg xmlns="http://www.w3.org/2000/svg" xmlns:xlink="http://www.w3.org/1999/xlink" contentScriptType="application/ecmascript" contentStyleType="text/css" height="727px" preserveAspectRatio="none" style="width:707px;height:727px;background:#FFFFFF;" version="1.1" viewBox="0 0 707 727" width="707px" zoomAndPan="magnify"><defs><filter height="300%" id="fd75i39uozg2l" width="300%" x="-1" y="-1"><feGaussianBlur result="blurOut" stdDeviation="2.0"/><feColorMatrix in="blurOut" result="blurOut2" type="matrix" values="0 0 0 0 0 0 0 0 0 0 0 0 0 0 0 0 0 0 .4 0"/><feOffset dx="4.0" dy="4.0" in="blurOut2" result="blurOut3"/><feBlend in="SourceGraphic" in2="blurOut3" mode="normal"/></filter></defs><g><!--MD5=[f8bb0afcd91c07b2998836e4b732261a]
entity cd--><polygon fill="#FEFECE" filter="url(#fd75i39uozg2l)" points="41,6,41,42.4883,197,42.4883,197,16,187,6,41,6" style="stroke:#000000;stroke-width:1.5;"/><path d="M187,6 L187,16 L197,16 " fill="#FEFECE" style="stroke:#000000;stroke-width:1.5;"/><text fill="#000000" font-family="sans-serif" font-size="14" lengthAdjust="spacing" textLength="136" x="51" y="29.5352">Workload Definition</text><!--MD5=[1ea5fd73a26f9f32af22e79f493c5bf3]
entity td--><polygon fill="#FEFECE" filter="url(#fd75i39uozg2l)" points="232.5,6,232.5,42.4883,355.5,42.4883,355.5,16,345.5,6,232.5,6" style="stroke:#000000;stroke-width:1.5;"/><path d="M345.5,6 L345.5,16 L355.5,16 " fill="#FEFECE" style="stroke:#000000;stroke-width:1.5;"/><text fill="#000000" font-family="sans-serif" font-size="14" lengthAdjust="spacing" textLength="103" x="242.5" y="29.5352">Trait Definition</text><!--MD5=[1865ce58b93b46dbf0f89b42133fbc97]
entity sd--><polygon fill="#FEFECE" filter="url(#fd75i39uozg2l)" points="391,6,391,42.4883,523,42.4883,523,16,513,6,391,6" style="stroke:#000000;stroke-width:1.5;"/><path d="M513,6 L513,16 L523,16 " fill="#FEFECE" style="stroke:#000000;stroke-width:1.5;"/><text fill="#000000" font-family="sans-serif" font-size="14" lengthAdjust="spacing" textLength="112" x="401" y="29.5352">Scope Definition</text><!--MD5=[8e9b2d9d80e066cced8e5d90e9bdea61]
entity c--><polygon fill="#FEFECE" filter="url(#fd75i39uozg2l)" points="68.5,119,68.5,155.4883,169.5,155.4883,169.5,129,159.5,119,68.5,119" style="stroke:#000000;stroke-width:1.5;"/><path d="M159.5,119 L159.5,129 L169.5,129 " fill="#FEFECE" style="stroke:#000000;stroke-width:1.5;"/><text fill="#000000" font-family="sans-serif" font-size="14" lengthAdjust="spacing" textLength="81" x="78.5" y="142.5352">Component</text><!--MD5=[f83ae91a690dfc657e1c5fbbd818f13d]
entity a--><polygon fill="#FEFECE" filter="url(#fd75i39uozg2l)" points="189,232,189,268.4883,387,268.4883,387,242,377,232,189,232" style="stroke:#000000;stroke-width:1.5;"/><path d="M377,232 L377,242 L387,242 " fill="#FEFECE" style="stroke:#000000;stroke-width:1.5;"/><text fill="#000000" font-family="sans-serif" font-size="14" lengthAdjust="spacing" textLength="178" x="199" y="255.5352">Application Configuration</text><!--MD5=[d8322213e5f4465576b8bf70cd9bce59]
entity s--><polygon fill="#FEFECE" filter="url(#fd75i39uozg2l)" points="426.5,119,426.5,155.4883,487.5,155.4883,487.5,129,477.5,119,426.5,119" style="stroke:#000000;stroke-width:1.5;"/><path d="M477.5,119 L477.5,129 L487.5,129 " fill="#FEFECE" style="stroke:#000000;stroke-width:1.5;"/><text fill="#000000" font-family="sans-serif" font-size="14" lengthAdjust="spacing" textLength="41" x="436.5" y="142.5352">Scope</text><!--MD5=[293c3ca832c7a51fd3a58001a1884d35]
entity wi--><polygon fill="#FEFECE" filter="url(#fd75i39uozg2l)" points="170.5,458,170.5,494.4883,255.5,494.4883,255.5,468,245.5,458,170.5,458" style="stroke:#000000;stroke-width:1.5;"/><path d="M245.5,458 L245.5,468 L255.5,468 " fill="#FEFECE" style="stroke:#000000;stroke-width:1.5;"/><text fill="#000000" font-family="sans-serif" font-size="14" lengthAdjust="spacing" textLength="65" x="180.5" y="481.5352">Workload</text><!--MD5=[3ae3c4fcda79e9281b7e36fb82444fac]
entity ti--><polygon fill="#FEFECE" filter="url(#fd75i39uozg2l)" points="291,458,291,494.4883,343,494.4883,343,468,333,458,291,458" style="stroke:#000000;stroke-width:1.5;"/><path d="M333,458 L333,468 L343,468 " fill="#FEFECE" style="stroke:#000000;stroke-width:1.5;"/><text fill="#000000" font-family="sans-serif" font-size="14" lengthAdjust="spacing" textLength="32" x="301" y="481.5352">Trait</text><!--MD5=[9d403e8d464ed92489232c826cd3a1fa]
entity wr--><polygon fill="#FEFECE" filter="url(#fd75i39uozg2l)" points="16,684,16,720.4883,236,720.4883,236,694,226,684,16,684" style="stroke:#000000;stroke-width:1.5;"/><path d="M226,684 L226,694 L236,694 " fill="#FEFECE" style="stroke:#000000;stroke-width:1.5;"/><text fill="#000000" font-family="sans-serif" font-size="14" lengthAdjust="spacing" textLength="200" x="26" y="707.5352">Workload Runtime Resources</text><!--MD5=[edc2c29f12934937e9dee71e2d189b28]
entity tr--><polygon fill="#FEFECE" filter="url(#fd75i39uozg2l)" points="271.5,684,271.5,720.4883,458.5,720.4883,458.5,694,448.5,684,271.5,684" style="stroke:#000000;stroke-width:1.5;"/><path d="M448.5,684 L448.5,694 L458.5,694 " fill="#FEFECE" style="stroke:#000000;stroke-width:1.5;"/><text fill="#000000" font-family="sans-serif" font-size="14" lengthAdjust="spacing" textLength="167" x="281.5" y="707.5352">Trait Runtime Resources</text><!--MD5=[74d933e1d656676adfcd4a7f27d1afee]
entity sr--><polygon fill="#FEFECE" filter="url(#fd75i39uozg2l)" points="494,684,494,720.4883,690,720.4883,690,694,680,684,494,684" style="stroke:#000000;stroke-width:1.5;"/><path d="M680,684 L680,694 L690,694 " fill="#FEFECE" style="stroke:#000000;stroke-width:1.5;"/><text fill="#000000" font-family="sans-serif" font-size="14" lengthAdjust="spacing" textLength="176" x="504" y="707.5352">Scope Runtime Resources</text><!--MD5=[1c5ba14a582780a0070707c3598231a5]
entity ac--><rect fill="#90EE90" filter="url(#fd75i39uozg2l)" height="36.4883" rx="35" ry="35" style="stroke:#000000;stroke-width:1.5;" width="268" x="154" y="345"/><text fill="#000000" font-family="sans-serif" font-size="14" lengthAdjust="spacing" textLength="248" x="164" y="368.5352">ApplicationConfiguration Controller</text><!--MD5=[6526aea6544ce4a9b20e76fa099a9860]
entity wc--><rect fill="#90EE90" filter="url(#fd75i39uozg2l)" height="36.4883" rx="35" ry="35" style="stroke:#000000;stroke-width:1.5;" width="159" x="77.5" y="571"/><text fill="#000000" font-family="sans-serif" font-size="14" lengthAdjust="spacing" textLength="139" x="87.5" y="594.5352">Workload Controller</text><!--MD5=[0dc3a655c088fd6165ba4a37cb8fe693]
entity tc--><rect fill="#90EE90" filter="url(#fd75i39uozg2l)" height="36.4883" rx="35" ry="35" style="stroke:#000000;stroke-width:1.5;" width="126" x="302" y="571"/><text fill="#000000" font-family="sans-serif" font-size="14" lengthAdjust="spacing" textLength="106" x="312" y="594.5352">Trait Controller</text><!--MD5=[f6c8693f2725baec96dbc257309cbcf0]
entity sc--><rect fill="#90EE90" filter="url(#fd75i39uozg2l)" height="36.4883" rx="35" ry="35" style="stroke:#000000;stroke-width:1.5;" width="135" x="494.5" y="571"/><text fill="#000000" font-family="sans-serif" font-size="14" lengthAdjust="spacing" textLength="115" x="504.5" y="594.5352">Scope Controller</text><!--MD5=[941915229d091c42fef1edf42b9fc492]
reverse link cd to c--><path d="M119,47.47 C119,68.55 119,99.6 119,118.78 " fill="none" id="cd-backto-c" style="stroke:#A80036;stroke-width:1.0;"/><polygon fill="#A80036" points="119,42.34,115,51.34,119,47.34,123,51.34,119,42.34" style="stroke:#A80036;stroke-width:1.0;"/><text fill="#000000" font-family="sans-serif" font-size="13" lengthAdjust="spacing" textLength="65" x="120" y="85.5684">references</text><!--MD5=[66c716831eddd28fc3cdf9e98a2c6c77]
reverse link sd to s--><path d="M457,47.47 C457,68.55 457,99.6 457,118.78 " fill="none" id="sd-backto-s" style="stroke:#A80036;stroke-width:1.0;"/><polygon fill="#A80036" points="457,42.34,453,51.34,457,47.34,461,51.34,457,42.34" style="stroke:#A80036;stroke-width:1.0;"/><text fill="#000000" font-family="sans-serif" font-size="13" lengthAdjust="spacing" textLength="65" x="458" y="85.5684">references</text><!--MD5=[2e29441956a0cea2468521de1b1bf232]
reverse link c to a--><path d="M142.13,158.8 C157.4,172 178.18,188.98 198,202 C214.8,213.03 234.48,223.56 251.15,231.84 " fill="none" id="c-backto-a" style="stroke:#A80036;stroke-width:1.0;"/><polygon fill="#A80036" points="137.97,155.18,142.1476,164.0989,141.747,158.4563,147.3897,158.0557,137.97,155.18" style="stroke:#A80036;stroke-width:1.0;"/><text fill="#000000" font-family="sans-serif" font-size="13" lengthAdjust="spacing" textLength="65" x="199" y="198.5684">references</text><!--MD5=[e7f77c6406d88d53957951402c1b929c]
reverse link td to a--><path d="M293.4,47.38 C292.2,92.09 289.54,191.61 288.46,231.74 " fill="none" id="td-backto-a" style="stroke:#A80036;stroke-width:1.0;"/><polygon fill="#A80036" points="293.54,42.2,289.3093,51.0939,293.4111,47.1983,297.3067,51.3001,293.54,42.2" style="stroke:#A80036;stroke-width:1.0;"/><text fill="#000000" font-family="sans-serif" font-size="13" lengthAdjust="spacing" textLength="65" x="292" y="142.0684">references</text><!--MD5=[3092799d17a0495554bd6997ac097657]
reverse link s to a--><path d="M421.37,153.62 C403.59,162 382.07,173.06 364,185 C342.7,199.07 320.63,218.27 305.79,231.95 " fill="none" id="s-backto-a" style="stroke:#A80036;stroke-width:1.0;"/><polygon fill="#A80036" points="426.28,151.33,416.4328,151.5129,421.7494,153.4452,419.8172,158.7618,426.28,151.33" style="stroke:#A80036;stroke-width:1.0;"/><text fill="#000000" font-family="sans-serif" font-size="13" lengthAdjust="spacing" textLength="65" x="365" y="198.5684">references</text><!--MD5=[63eb523696b4d7cecf9bf3b25cea67d7]
reverse link a to ac--><path d="M288,273.47 C288,294.55 288,325.6 288,344.78 " fill="none" id="a-backto-ac" style="stroke:#A80036;stroke-width:1.0;"/><polygon fill="#A80036" points="288,268.34,284,277.34,288,273.34,292,277.34,288,268.34" style="stroke:#A80036;stroke-width:1.0;"/><text fill="#000000" font-family="sans-serif" font-size="13" lengthAdjust="spacing" textLength="34" x="289" y="311.5684">reads</text><!--MD5=[86b1a568124c3966cde6e7ee196af1a0]
reverse link c to ac--><path d="M116.19,160.39 C113.9,187.96 113.91,235.18 135,268 C159.02,305.37 203.7,330.27 238.61,344.99 " fill="none" id="c-backto-ac" style="stroke:#A80036;stroke-width:1.0;"/><polygon fill="#A80036" points="116.67,155.14,111.8649,163.7372,116.2135,160.1191,119.8315,164.4676,116.67,155.14" style="stroke:#A80036;stroke-width:1.0;"/><text fill="#000000" font-family="sans-serif" font-size="13" lengthAdjust="spacing" textLength="34" x="136" y="255.0684">reads</text><!--MD5=[83c4edab81c16f2a0c1d16e1bef9ce3d]
link ac to wi--><path d="M274.22,381.08 C267.31,389.86 258.97,400.82 252,411 C242.57,424.77 232.8,440.8 225.4,453.38 " fill="none" id="ac-to-wi" style="stroke:#A80036;stroke-width:1.0;"/><polygon fill="#A80036" points="222.78,457.85,230.7818,452.1079,225.3082,453.5363,223.8799,448.0627,222.78,457.85" style="stroke:#A80036;stroke-width:1.0;"/><text fill="#000000" font-family="sans-serif" font-size="13" lengthAdjust="spacing" textLength="38" x="253" y="424.5684">writes</text><!--MD5=[0425c7577613809c006cc7fbacd4c73f]
link ac to ti--><path d="M292.53,381.34 C297.58,400.65 305.74,431.89 311.23,452.93 " fill="none" id="ac-to-ti" style="stroke:#A80036;stroke-width:1.0;"/><polygon fill="#A80036" points="312.5,457.78,314.1103,448.0637,311.2437,452.9404,306.367,450.0738,312.5,457.78" style="stroke:#A80036;stroke-width:1.0;"/><text fill="#000000" font-family="sans-serif" font-size="13" lengthAdjust="spacing" textLength="38" x="305" y="424.5684">writes</text><!--MD5=[5ac8e12c74ae5b9a44bdd7f99523310d]
link ac to s--><path d="M316.2,344.87 C342.08,327.99 380.07,300.1 405,268 C430.69,234.93 445.35,187.49 452.19,160.01 " fill="none" id="ac-to-s" style="stroke:#A80036;stroke-width:1.0;"/><polygon fill="#A80036" points="453.38,155.11,447.3597,162.9046,452.1942,159.9674,455.1315,164.8019,453.38,155.11" style="stroke:#A80036;stroke-width:1.0;"/><text fill="#000000" font-family="sans-serif" font-size="13" lengthAdjust="spacing" textLength="50" x="427" y="255.0684">updates</text><!--MD5=[5dc07238699572711eb01729951c0d73]
reverse link wi to wc--><path d="M201.93,498.94 C191.3,520.02 175.44,551.44 165.69,570.78 " fill="none" id="wi-backto-wc" style="stroke:#A80036;stroke-width:1.0;"/><polygon fill="#A80036" points="204.25,494.34,196.6154,500.562,201.9911,498.8006,203.7525,504.1763,204.25,494.34" style="stroke:#A80036;stroke-width:1.0;"/><text fill="#000000" font-family="sans-serif" font-size="13" lengthAdjust="spacing" textLength="34" x="190" y="537.5684">reads</text><!--MD5=[ca8b0c34eeded086a8eaa1dc8ccd0074]
link wc to wr--><path d="M152.16,607.34 C146.76,626.65 138.04,657.89 132.16,678.93 " fill="none" id="wc-to-wr" style="stroke:#A80036;stroke-width:1.0;"/><polygon fill="#A80036" points="130.81,683.78,137.081,676.1856,132.1534,678.9638,129.3752,674.0362,130.81,683.78" style="stroke:#A80036;stroke-width:1.0;"/><text fill="#000000" font-family="sans-serif" font-size="13" lengthAdjust="spacing" textLength="38" x="145" y="650.5684">writes</text><!--MD5=[f5e611662dd7b96a7f90a64d061c34c6]
reverse link ti to tc--><path d="M326.49,498.94 C335.6,520.02 349.19,551.44 357.55,570.78 " fill="none" id="ti-backto-tc" style="stroke:#A80036;stroke-width:1.0;"/><polygon fill="#A80036" points="324.5,494.34,324.4057,504.1884,326.4868,498.9283,331.7469,501.0095,324.5,494.34" style="stroke:#A80036;stroke-width:1.0;"/><text fill="#000000" font-family="sans-serif" font-size="13" lengthAdjust="spacing" textLength="34" x="344" y="537.5684">reads</text><!--MD5=[ecdff68b43bcc7d991f1b8c993c618d8]
link tc to tr--><path d="M365,607.34 C365,626.57 365,657.63 365,678.66 " fill="none" id="tc-to-tr" style="stroke:#A80036;stroke-width:1.0;"/><polygon fill="#A80036" points="365,683.78,369,674.78,365,678.78,361,674.78,365,683.78" style="stroke:#A80036;stroke-width:1.0;"/><text fill="#000000" font-family="sans-serif" font-size="13" lengthAdjust="spacing" textLength="38" x="366" y="650.5684">writes</text><!--MD5=[35809e4d8eedb37b026dc5244884b185]
reverse link s to sc--><path d="M492.09,156.35 C522.61,175.13 562,207.41 562,249 C562,249 562,249 562,477 C562,510.15 562,548.86 562,570.7 " fill="none" id="s-backto-sc" style="stroke:#A80036;stroke-width:1.0;"/><polygon fill="#A80036" points="487.65,153.68,493.2897,161.7543,491.9312,156.263,497.4225,154.9044,487.65,153.68" style="stroke:#A80036;stroke-width:1.0;"/><text fill="#000000" font-family="sans-serif" font-size="13" lengthAdjust="spacing" textLength="34" x="563" y="368.0684">reads</text><!--MD5=[06a691401efd8933022d559b0935f00a]
link sc to sr--><path d="M566.69,607.34 C571.91,626.65 580.35,657.89 586.03,678.93 " fill="none" id="sc-to-sr" style="stroke:#A80036;stroke-width:1.0;"/><polygon fill="#A80036" points="587.35,683.78,588.8459,674.0454,586.0368,678.9555,581.1267,676.1465,587.35,683.78" style="stroke:#A80036;stroke-width:1.0;"/><text fill="#000000" font-family="sans-serif" font-size="13" lengthAdjust="spacing" textLength="38" x="579" y="650.5684">writes</text><!--MD5=[f7910074058384b58b0ed0ed9efda332]
link cd to td--><!--MD5=[b83cee3ac45183930b174ebf3878042c]
link td to sd--><!--MD5=[09f50d3b157b2235e3c4a869c1977c9b]
link wi to ti--><!--MD5=[291a720b46dc4daafc9cbbe5de9cd2c2]
link tc to sc--><!--MD5=[ab340d5fedaf8246a348d2c2e8b3812a]
@startuml

file "Workload Definition" as cd
file "Trait Definition" as td
file "Scope Definition" as sd
file "Component" as c
file "Application Configuration" as a
file "Scope" as s
file "Workload" as wi
file "Trait" as ti
file "Workload Runtime Resources" as wr
file "Trait Runtime Resources" as tr
file "Scope Runtime Resources" as sr

'Using storage for the oval shape
storage "ApplicationConfiguration Controller" as ac #lightgreen
storage "Workload Controller" as wc #lightgreen
storage "Trait Controller" as tc #lightgreen
storage "Scope Controller" as sc #lightgreen

c -u-> cd: references
s -u-> sd: references

a -u-> c: references
a -u-> td: references
a -u-> s: references

ac -u-> a: reads
ac -u-> c: reads
ac -d-> wi: writes
ac -d-> ti: writes
ac - -> s: updates

wc -u-> wi: reads
wc -d-> wr: writes

tc -u-> ti: reads
tc -d-> tr: writes

sc -u-> s: reads
sc -d-> sr: writes

'Hidden lines to adjust layout
cd -[hidden]r- td
td -[hidden]r- sd
wi -[hidden]r- ti
tc -[hidden]r- sc

@enduml

@startuml

file "Workload Definition" as cd
file "Trait Definition" as td
file "Scope Definition" as sd
file "Component" as c
file "Application Configuration" as a
file "Scope" as s
file "Workload" as wi
file "Trait" as ti
file "Workload Runtime Resources" as wr
file "Trait Runtime Resources" as tr
file "Scope Runtime Resources" as sr

storage "ApplicationConfiguration Controller" as ac #lightgreen
storage "Workload Controller" as wc #lightgreen
storage "Trait Controller" as tc #lightgreen
storage "Scope Controller" as sc #lightgreen

c -u-> cd: references
s -u-> sd: references

a -u-> c: references
a -u-> td: references
a -u-> s: references

ac -u-> a: reads
ac -u-> c: reads
ac -d-> wi: writes
ac -d-> ti: writes
ac - -> s: updates

wc -u-> wi: reads
wc -d-> wr: writes

tc -u-> ti: reads
tc -d-> tr: writes

sc -u-> s: reads
sc -d-> sr: writes

cd -[hidden]r- td
td -[hidden]r- sd
wi -[hidden]r- ti
tc -[hidden]r- sc

@enduml

PlantUML version 1.2021.7(Sun May 23 08:40:07 EDT 2021)
(GPL source distribution)
Java Runtime: OpenJDK Runtime Environment
JVM: Dynamic Code Evolution 64-Bit Server VM
Default Encoding: UTF-8
Language: en
Country: US
--></g></svg>