<?xml version="1.0" encoding="UTF-8" standalone="no"?><svg xmlns="http://www.w3.org/2000/svg" xmlns:xlink="http://www.w3.org/1999/xlink" contentScriptType="application/ecmascript" contentStyleType="text/css" height="280px" preserveAspectRatio="none" style="width:458px;height:280px;background:#FFFFFF;" version="1.1" viewBox="0 0 458 280" width="458px" zoomAndPan="magnify"><defs><filter height="300%" id="f1babxyfzmj95b" width="300%" x="-1" y="-1"><feGaussianBlur result="blurOut" stdDeviation="2.0"/><feColorMatrix in="blurOut" result="blurOut2" type="matrix" values="0 0 0 0 0 0 0 0 0 0 0 0 0 0 0 0 0 0 .4 0"/><feOffset dx="4.0" dy="4.0" in="blurOut2" result="blurOut3"/><feBlend in="SourceGraphic" in2="blurOut3" mode="normal"/></filter></defs><g><!--MD5=[f83ae91a690dfc657e1c5fbbd818f13d]
entity a--><polygon fill="#FEFECE" filter="url(#f1babxyfzmj95b)" points="117,6,117,42.4883,322,42.4883,322,16,312,6,117,6" style="stroke:#000000;stroke-width:1.5;"/><path d="M312,6 L312,16 L322,16 " fill="#FEFECE" style="stroke:#000000;stroke-width:1.5;"/><text fill="#000000" font-family="sans-serif" font-size="14" lengthAdjust="spacing" textLength="185" x="127" y="29.5352">Application Configurations</text><!--MD5=[4b52362e67c82d91eba5cb75921775cc]
entity t--><rect fill="#FEFECE" filter="url(#f1babxyfzmj95b)" height="36.4883" style="stroke:#000000;stroke-width:1.5;" width="59" x="7" y="119"/><text fill="#000000" font-family="sans-serif" font-size="14" lengthAdjust="spacing" textLength="39" x="17" y="142.5352">Traits</text><!--MD5=[8e9b2d9d80e066cced8e5d90e9bdea61]
entity c--><polygon fill="#FEFECE" filter="url(#f1babxyfzmj95b)" points="165.5,119,165.5,155.4883,273.5,155.4883,273.5,129,263.5,119,165.5,119" style="stroke:#000000;stroke-width:1.5;"/><path d="M263.5,119 L263.5,129 L273.5,129 " fill="#FEFECE" style="stroke:#000000;stroke-width:1.5;"/><text fill="#000000" font-family="sans-serif" font-size="14" lengthAdjust="spacing" textLength="88" x="175.5" y="142.5352">Components</text><!--MD5=[d8322213e5f4465576b8bf70cd9bce59]
entity s--><polygon fill="#FEFECE" filter="url(#f1babxyfzmj95b)" points="373.5,119,373.5,155.4883,441.5,155.4883,441.5,129,431.5,119,373.5,119" style="stroke:#000000;stroke-width:1.5;"/><path d="M431.5,119 L431.5,129 L441.5,129 " fill="#FEFECE" style="stroke:#000000;stroke-width:1.5;"/><text fill="#000000" font-family="sans-serif" font-size="14" lengthAdjust="spacing" textLength="48" x="383.5" y="142.5352">Scopes</text><!--MD5=[5b15d04c6eb656314d90c943872e8a65]
entity w--><rect fill="#FEFECE" filter="url(#f1babxyfzmj95b)" height="36.4883" style="stroke:#000000;stroke-width:1.5;" width="92" x="173.5" y="232"/><text fill="#000000" font-family="sans-serif" font-size="14" lengthAdjust="spacing" textLength="72" x="183.5" y="255.5352">Workloads</text><!--MD5=[6ceeca4868713e325d6cfa5281e89936]
link a to t--><path d="M191.31,42.1 C158.4,62.06 104.05,95.03 69.29,116.11 " fill="none" id="a-to-t" style="stroke:#A80036;stroke-width:1.0;"/><polygon fill="#A80036" points="64.72,118.88,74.4876,117.6173,68.991,116.2803,70.328,110.7837,64.72,118.88" style="stroke:#A80036;stroke-width:1.0;"/><text fill="#000000" font-family="sans-serif" font-size="13" lengthAdjust="spacing" textLength="54" x="140.5" y="85.5684">contains</text><!--MD5=[d6047f197d3927fefc7f7c2751c9df28]
link a to c--><path d="M219.5,42.34 C219.5,61.57 219.5,92.63 219.5,113.66 " fill="none" id="a-to-c" style="stroke:#A80036;stroke-width:1.0;"/><polygon fill="#A80036" points="219.5,118.78,223.5,109.78,219.5,113.78,215.5,109.78,219.5,118.78" style="stroke:#A80036;stroke-width:1.0;"/><text fill="#000000" font-family="sans-serif" font-size="13" lengthAdjust="spacing" textLength="65" x="220.5" y="85.5684">references</text><!--MD5=[97e51eccafb1f7bf03236bc375f9e7dc]
link a to s--><path d="M248.46,42.1 C282.27,62.06 338.1,95.03 373.82,116.11 " fill="none" id="a-to-s" style="stroke:#A80036;stroke-width:1.0;"/><polygon fill="#A80036" points="378.5,118.88,372.7893,110.8558,374.1962,116.3349,368.7171,117.7419,378.5,118.88" style="stroke:#A80036;stroke-width:1.0;"/><text fill="#000000" font-family="sans-serif" font-size="13" lengthAdjust="spacing" textLength="65" x="325.5" y="85.5684">references</text><!--MD5=[1486b0da8781de8523d6998bcace28fd]
link c to w--><path d="M219.5,155.34 C219.5,174.57 219.5,205.63 219.5,226.66 " fill="none" id="c-to-w" style="stroke:#A80036;stroke-width:1.0;"/><polygon fill="#A80036" points="219.5,231.78,223.5,222.78,219.5,226.78,215.5,222.78,219.5,231.78" style="stroke:#A80036;stroke-width:1.0;"/><text fill="#000000" font-family="sans-serif" font-size="13" lengthAdjust="spacing" textLength="54" x="220.5" y="198.5684">contains</text><!--MD5=[b768ed6858f79b791919b593256e12fc]
link t to c--><path d="M66.31,137 C91.59,137 128.62,137 159.94,137 " fill="none" id="t-to-c" style="stroke:#A80036;stroke-width:1.0;"/><polygon fill="#A80036" points="165.31,137,156.31,133,160.31,137,156.31,141,165.31,137" style="stroke:#A80036;stroke-width:1.0;"/><text fill="#000000" font-family="sans-serif" font-size="13" lengthAdjust="spacing" textLength="63" x="84.25" y="130.5684">applied to</text><!--MD5=[66fb36a916a6f233dca30496ab2a602b]
reverse link c to s--><path d="M278.96,137 C310.04,137 346.98,137 373.27,137 " fill="none" id="c-backto-s" style="stroke:#A80036;stroke-width:1.0;"/><polygon fill="#A80036" points="273.63,137,282.63,141,278.63,137,282.63,133,273.63,137" style="stroke:#A80036;stroke-width:1.0;"/><text fill="#000000" font-family="sans-serif" font-size="13" lengthAdjust="spacing" textLength="63" x="292" y="130.5684">applied to</text><!--MD5=[44f5ad0dec8ed155c9af6c77fdf4e968]
@startuml
' Copyright (c) 2020, 2021, Oracle and/or its affiliates.
' Licensed under the Universal Permissive License v 1.0 as shown at https://oss.oracle.com/licenses/upl.

file "Application Configurations" as a
rectangle "Traits" as t
file "Components" as c
file "Scopes" as s
rectangle "Workloads" as w

a - -> t: contains
a -d-> c: references
a -d-> s: references

c -d-> w: contains

t -r-> c: applied to
s -l-> c: applied to

@enduml

@startuml

file "Application Configurations" as a
rectangle "Traits" as t
file "Components" as c
file "Scopes" as s
rectangle "Workloads" as w

a - -> t: contains
a -d-> c: references
a -d-> s: references

c -d-> w: contains

t -r-> c: applied to
s -l-> c: applied to

@enduml

PlantUML version 1.2021.7(Sun May 23 08:40:07 EDT 2021)
(GPL source distribution)
Java Runtime: OpenJDK Runtime Environment
JVM: Dynamic Code Evolution 64-Bit Server VM
Default Encoding: UTF-8
Language: en
Country: US
--></g></svg>