<?xml version="1.0" encoding="UTF-8" standalone="no"?><svg xmlns="http://www.w3.org/2000/svg" xmlns:xlink="http://www.w3.org/1999/xlink" contentScriptType="application/ecmascript" contentStyleType="text/css" height="388px" preserveAspectRatio="none" style="width:536px;height:388px;background:#FFFFFF;" version="1.1" viewBox="0 0 536 388" width="536px" zoomAndPan="magnify"><defs><filter height="300%" id="f10w6h7zilzxms" width="300%" x="-1" y="-1"><feGaussianBlur result="blurOut" stdDeviation="2.0"/><feColorMatrix in="blurOut" result="blurOut2" type="matrix" values="0 0 0 0 0 0 0 0 0 0 0 0 0 0 0 0 0 0 .4 0"/><feOffset dx="4.0" dy="4.0" in="blurOut2" result="blurOut3"/><feBlend in="SourceGraphic" in2="blurOut3" mode="normal"/></filter></defs><g><!--MD5=[f83ae91a690dfc657e1c5fbbd818f13d]
entity a--><polygon fill="#FEFECE" filter="url(#f10w6h7zilzxms)" points="160.5,6,160.5,42.4883,365.5,42.4883,365.5,16,355.5,6,160.5,6" style="stroke:#000000;stroke-width:1.5;"/><path d="M355.5,6 L355.5,16 L365.5,16 " fill="#FEFECE" style="stroke:#000000;stroke-width:1.5;"/><text fill="#000000" font-family="sans-serif" font-size="14" lengthAdjust="spacing" textLength="185" x="170.5" y="29.5352">Application Configurations</text><!--MD5=[4b52362e67c82d91eba5cb75921775cc]
entity t--><rect fill="#FEFECE" filter="url(#f10w6h7zilzxms)" height="36.4883" style="stroke:#000000;stroke-width:1.5;" width="59" x="50.5" y="119"/><text fill="#000000" font-family="sans-serif" font-size="14" lengthAdjust="spacing" textLength="39" x="60.5" y="142.5352">Traits</text><!--MD5=[8e9b2d9d80e066cced8e5d90e9bdea61]
entity c--><polygon fill="#FEFECE" filter="url(#f10w6h7zilzxms)" points="209,119,209,155.4883,317,155.4883,317,129,307,119,209,119" style="stroke:#000000;stroke-width:1.5;"/><path d="M307,119 L307,129 L317,129 " fill="#FEFECE" style="stroke:#000000;stroke-width:1.5;"/><text fill="#000000" font-family="sans-serif" font-size="14" lengthAdjust="spacing" textLength="88" x="219" y="142.5352">Components</text><!--MD5=[d8322213e5f4465576b8bf70cd9bce59]
entity s--><polygon fill="#FEFECE" filter="url(#f10w6h7zilzxms)" points="417,119,417,155.4883,485,155.4883,485,129,475,119,417,119" style="stroke:#000000;stroke-width:1.5;"/><path d="M475,119 L475,129 L485,129 " fill="#FEFECE" style="stroke:#000000;stroke-width:1.5;"/><text fill="#000000" font-family="sans-serif" font-size="14" lengthAdjust="spacing" textLength="48" x="427" y="142.5352">Scopes</text><!--MD5=[5b15d04c6eb656314d90c943872e8a65]
entity w--><rect fill="#FEFECE" filter="url(#f10w6h7zilzxms)" height="36.4883" style="stroke:#000000;stroke-width:1.5;" width="92" x="217" y="232"/><text fill="#000000" font-family="sans-serif" font-size="14" lengthAdjust="spacing" textLength="72" x="227" y="255.5352">Workloads</text><!--MD5=[38ef3da207825949ac30c78e2f64fdaa]
entity wd--><polygon fill="#FEFECE" filter="url(#f10w6h7zilzxms)" points="181.5,345,181.5,381.4883,344.5,381.4883,344.5,355,334.5,345,181.5,345" style="stroke:#000000;stroke-width:1.5;"/><path d="M334.5,345 L334.5,355 L344.5,355 " fill="#FEFECE" style="stroke:#000000;stroke-width:1.5;"/><text fill="#000000" font-family="sans-serif" font-size="14" lengthAdjust="spacing" textLength="143" x="191.5" y="368.5352">Workload Definitions</text><!--MD5=[1ea5fd73a26f9f32af22e79f493c5bf3]
entity td--><polygon fill="#FEFECE" filter="url(#f10w6h7zilzxms)" points="16,345,16,381.4883,146,381.4883,146,355,136,345,16,345" style="stroke:#000000;stroke-width:1.5;"/><path d="M136,345 L136,355 L146,355 " fill="#FEFECE" style="stroke:#000000;stroke-width:1.5;"/><text fill="#000000" font-family="sans-serif" font-size="14" lengthAdjust="spacing" textLength="110" x="26" y="368.5352">Trait Definitions</text><!--MD5=[1865ce58b93b46dbf0f89b42133fbc97]
entity sd--><polygon fill="#FEFECE" filter="url(#f10w6h7zilzxms)" points="380.5,345,380.5,381.4883,519.5,381.4883,519.5,355,509.5,345,380.5,345" style="stroke:#000000;stroke-width:1.5;"/><path d="M509.5,345 L509.5,355 L519.5,355 " fill="#FEFECE" style="stroke:#000000;stroke-width:1.5;"/><text fill="#000000" font-family="sans-serif" font-size="14" lengthAdjust="spacing" textLength="119" x="390.5" y="368.5352">Scope Definitions</text><!--MD5=[6ceeca4868713e325d6cfa5281e89936]
link a to t--><path d="M234.81,42.1 C201.9,62.06 147.55,95.03 112.79,116.11 " fill="none" id="a-to-t" style="stroke:#A80036;stroke-width:1.0;"/><polygon fill="#A80036" points="108.22,118.88,117.9876,117.6173,112.491,116.2803,113.828,110.7837,108.22,118.88" style="stroke:#A80036;stroke-width:1.0;"/><text fill="#000000" font-family="sans-serif" font-size="13" lengthAdjust="spacing" textLength="54" x="183" y="85.5684">contains</text><!--MD5=[d6047f197d3927fefc7f7c2751c9df28]
link a to c--><path d="M263,42.34 C263,61.57 263,92.63 263,113.66 " fill="none" id="a-to-c" style="stroke:#A80036;stroke-width:1.0;"/><polygon fill="#A80036" points="263,118.78,267,109.78,263,113.78,259,109.78,263,118.78" style="stroke:#A80036;stroke-width:1.0;"/><text fill="#000000" font-family="sans-serif" font-size="13" lengthAdjust="spacing" textLength="65" x="264" y="85.5684">references</text><!--MD5=[97e51eccafb1f7bf03236bc375f9e7dc]
link a to s--><path d="M291.96,42.1 C325.77,62.06 381.6,95.03 417.32,116.11 " fill="none" id="a-to-s" style="stroke:#A80036;stroke-width:1.0;"/><polygon fill="#A80036" points="422,118.88,416.2893,110.8558,417.6962,116.3349,412.2171,117.7419,422,118.88" style="stroke:#A80036;stroke-width:1.0;"/><text fill="#000000" font-family="sans-serif" font-size="13" lengthAdjust="spacing" textLength="65" x="369" y="85.5684">references</text><!--MD5=[1486b0da8781de8523d6998bcace28fd]
link c to w--><path d="M263,155.34 C263,174.57 263,205.63 263,226.66 " fill="none" id="c-to-w" style="stroke:#A80036;stroke-width:1.0;"/><polygon fill="#A80036" points="263,231.78,267,222.78,263,226.78,259,222.78,263,231.78" style="stroke:#A80036;stroke-width:1.0;"/><text fill="#000000" font-family="sans-serif" font-size="13" lengthAdjust="spacing" textLength="54" x="264" y="198.5684">contains</text><!--MD5=[b768ed6858f79b791919b593256e12fc]
link t to c--><path d="M109.81,137 C135.09,137 172.12,137 203.44,137 " fill="none" id="t-to-c" style="stroke:#A80036;stroke-width:1.0;"/><polygon fill="#A80036" points="208.81,137,199.81,133,203.81,137,199.81,141,208.81,137" style="stroke:#A80036;stroke-width:1.0;"/><text fill="#000000" font-family="sans-serif" font-size="13" lengthAdjust="spacing" textLength="63" x="127.75" y="130.5684">applied to</text><!--MD5=[66fb36a916a6f233dca30496ab2a602b]
reverse link c to s--><path d="M322.46,137 C353.54,137 390.48,137 416.77,137 " fill="none" id="c-backto-s" style="stroke:#A80036;stroke-width:1.0;"/><polygon fill="#A80036" points="317.13,137,326.13,141,322.13,137,326.13,133,317.13,137" style="stroke:#A80036;stroke-width:1.0;"/><text fill="#000000" font-family="sans-serif" font-size="13" lengthAdjust="spacing" textLength="63" x="335.5" y="130.5684">applied to</text><!--MD5=[fd67234e7733f64004cf957abd7060f0]
link t to td--><path d="M80.08,155.2 C80.26,195.27 80.7,294.79 80.9,339.56 " fill="none" id="t-to-td" style="stroke:#A80036;stroke-width:1.0;stroke-dasharray:7.0,7.0;"/><polygon fill="#A80036" points="80.92,344.74,84.8943,335.7286,80.9057,339.74,76.8943,335.7515,80.92,344.74" style="stroke:#A80036;stroke-width:1.0;"/><text fill="#000000" font-family="sans-serif" font-size="13" lengthAdjust="spacing" textLength="66" x="82" y="255.0684">defined by</text><!--MD5=[95abc91817f5c920646607876e3376d0]
link w to wd--><path d="M263,268.34 C263,287.57 263,318.63 263,339.66 " fill="none" id="w-to-wd" style="stroke:#A80036;stroke-width:1.0;stroke-dasharray:7.0,7.0;"/><polygon fill="#A80036" points="263,344.78,267,335.78,263,339.78,259,335.78,263,344.78" style="stroke:#A80036;stroke-width:1.0;"/><text fill="#000000" font-family="sans-serif" font-size="13" lengthAdjust="spacing" textLength="66" x="264" y="311.5684">defined by</text><!--MD5=[c42cfdfc49c763897d0c6872bf50590e]
link s to sd--><path d="M450.92,155.2 C450.74,195.27 450.3,294.79 450.1,339.56 " fill="none" id="s-to-sd" style="stroke:#A80036;stroke-width:1.0;stroke-dasharray:7.0,7.0;"/><polygon fill="#A80036" points="450.08,344.74,454.1057,335.7515,450.0943,339.74,446.1057,335.7286,450.08,344.74" style="stroke:#A80036;stroke-width:1.0;"/><text fill="#000000" font-family="sans-serif" font-size="13" lengthAdjust="spacing" textLength="66" x="451" y="255.0684">defined by</text><!--MD5=[49d278b7aa260bf36ceba78ba77a6a93]
link td to wd--><!--MD5=[0048fc2a0e370a439425a9d61ae465a8]
link wd to sd--><!--MD5=[fb45bc35bb3885f59620a70fb38fe8a1]
@startuml
' Copyright (c) 2020, 2021, Oracle and/or its affiliates.
' Licensed under the Universal Permissive License v 1.0 as shown at https://oss.oracle.com/licenses/upl.

file "Application Configurations" as a
rectangle "Traits" as t
file "Components" as c
file "Scopes" as s
rectangle "Workloads" as w

file "Workload Definitions" as wd
file "Trait Definitions" as td
file "Scope Definitions" as sd

a - -> t: contains
a -d-> c: references
a -d-> s: references

c -d-> w: contains

t -r-> c: applied to
s -l-> c: applied to

t .d..> td: defined by
w .d.> wd: defined by
s .d..> sd: defined by

td -[hidden]r- wd
wd -[hidden]r- sd

@enduml

@startuml

file "Application Configurations" as a
rectangle "Traits" as t
file "Components" as c
file "Scopes" as s
rectangle "Workloads" as w

file "Workload Definitions" as wd
file "Trait Definitions" as td
file "Scope Definitions" as sd

a - -> t: contains
a -d-> c: references
a -d-> s: references

c -d-> w: contains

t -r-> c: applied to
s -l-> c: applied to

t .d..> td: defined by
w .d.> wd: defined by
s .d..> sd: defined by

td -[hidden]r- wd
wd -[hidden]r- sd

@enduml

PlantUML version 1.2021.7(Sun May 23 08:40:07 EDT 2021)
(GPL source distribution)
Java Runtime: OpenJDK Runtime Environment
JVM: Dynamic Code Evolution 64-Bit Server VM
Default Encoding: UTF-8
Language: en
Country: US
--></g></svg>