<svg width="1052" height="536" viewBox="0 0 1052 536" fill="none" xmlns="http://www.w3.org/2000/svg">
<g id="oam-flow" clip-path="url(#clip0_3445_135416)">
<rect width="1052" height="536" fill="white"/>
<path id="Vector 22" d="M392.707 115.707C393.098 115.317 393.098 114.683 392.707 114.293L386.343 107.929C385.953 107.538 385.319 107.538 384.929 107.929C384.538 108.319 384.538 108.953 384.929 109.343L390.586 115L384.929 120.657C384.538 121.047 384.538 121.681 384.929 122.071C385.319 122.462 385.953 122.462 386.343 122.071L392.707 115.707ZM192 116L392 116L392 114L192 114L192 116Z" fill="#161513"/>
<path id="Vector 104" d="M558.707 133.293C558.317 132.902 557.683 132.902 557.293 133.293L550.929 139.657C550.538 140.047 550.538 140.681 550.929 141.071C551.319 141.462 551.953 141.462 552.343 141.071L558 135.414L563.657 141.071C564.047 141.462 564.681 141.462 565.071 141.071C565.462 140.681 565.462 140.047 565.071 139.657L558.707 133.293ZM559 191L559 134L557 134L557 191L559 191Z" fill="#161513"/>
<path id="Vector 105" d="M557.293 297.707C557.683 298.098 558.317 298.098 558.707 297.707L565.071 291.343C565.462 290.953 565.462 290.319 565.071 289.929C564.681 289.538 564.047 289.538 563.657 289.929L558 295.586L552.343 289.929C551.953 289.538 551.319 289.538 550.929 289.929C550.538 290.319 550.538 290.953 550.929 291.343L557.293 297.707ZM559 297L559 240L557 240L557 297L559 297Z" fill="#161513"/>
<path id="Vector 107" d="M559.707 333.293C559.317 332.902 558.683 332.902 558.293 333.293L551.929 339.657C551.538 340.047 551.538 340.681 551.929 341.071C552.319 341.462 552.953 341.462 553.343 341.071L559 335.414L564.657 341.071C565.047 341.462 565.681 341.462 566.071 341.071C566.462 340.681 566.462 340.047 566.071 339.657L559.707 333.293ZM560 391L560 334L558 334L558 391L560 391Z" fill="#161513"/>
<path id="Vector 110" d="M292.707 333.293C292.317 332.902 291.683 332.902 291.293 333.293L284.929 339.657C284.538 340.047 284.538 340.681 284.929 341.071C285.319 341.462 285.953 341.462 286.343 341.071L292 335.414L297.657 341.071C298.047 341.462 298.681 341.462 299.071 341.071C299.462 340.681 299.462 340.047 299.071 339.657L292.707 333.293ZM293 391L293 334L291 334L291 391L293 391Z" fill="#161513"/>
<path id="Vector 111" d="M291.293 498.707C291.683 499.098 292.317 499.098 292.707 498.707L299.071 492.343C299.462 491.953 299.462 491.319 299.071 490.929C298.681 490.538 298.047 490.538 297.657 490.929L292 496.586L286.343 490.929C285.953 490.538 285.319 490.538 284.929 490.929C284.538 491.319 284.538 491.953 284.929 492.343L291.293 498.707ZM293 498L293 441L291 441L291 498L293 498Z" fill="#161513"/>
<path id="Vector 112" d="M557.293 498.707C557.683 499.098 558.317 499.098 558.707 498.707L565.071 492.343C565.462 491.953 565.462 491.319 565.071 490.929C564.681 490.538 564.047 490.538 563.657 490.929L558 496.586L552.343 490.929C551.953 490.538 551.319 490.538 550.929 490.929C550.538 491.319 550.538 491.953 550.929 492.343L557.293 498.707ZM559 498L559 441L557 441L557 498L559 498Z" fill="#161513"/>
<path id="Vector 113" d="M823.293 498.707C823.683 499.098 824.317 499.098 824.707 498.707L831.071 492.343C831.462 491.953 831.462 491.319 831.071 490.929C830.681 490.538 830.047 490.538 829.657 490.929L824 496.586L818.343 490.929C817.953 490.538 817.319 490.538 816.929 490.929C816.538 491.319 816.538 491.953 816.929 492.343L823.293 498.707ZM825 498L825 441L823 441L823 498L825 498Z" fill="#161513"/>
<path id="Vector 108" d="M824 315L824 314L823 314L823 315L824 315ZM1012 315L1012 316L1013 316L1013 315L1012 315ZM1012.71 133.293C1012.32 132.902 1011.68 132.902 1011.29 133.293L1004.93 139.657C1004.54 140.047 1004.54 140.681 1004.93 141.071C1005.32 141.462 1005.95 141.462 1006.34 141.071L1012 135.414L1017.66 141.071C1018.05 141.462 1018.68 141.462 1019.07 141.071C1019.46 140.681 1019.46 140.047 1019.07 139.657L1012.71 133.293ZM825 391L825 315L823 315L823 391L825 391ZM824 316L1012 316L1012 314L824 314L824 316ZM1013 315L1013 134L1011 134L1011 315L1013 315Z" fill="#161513"/>
<path id="Vector 103" d="M914.707 115.707C915.098 115.317 915.098 114.683 914.707 114.293L908.343 107.929C907.953 107.538 907.319 107.538 906.929 107.929C906.538 108.319 906.538 108.953 906.929 109.343L912.586 115L906.929 120.657C906.538 121.047 906.538 121.681 906.929 122.071C907.319 122.462 907.953 122.462 908.343 122.071L914.707 115.707ZM714 116L914 116L914 114L714 114L714 116Z" fill="#161513"/>
<g id="Start/End">
<rect id="Rectangle 705" x="442.5" y="191.5" width="231" height="47" rx="23.5" fill="#D0EAC1" stroke="#5F7D4F"/>
<text id="Start" fill="#312D2A" xml:space="preserve" style="white-space: pre" font-family="Oracle Sans" font-size="16" letter-spacing="0em"><tspan x="468.155" y="211.655">ApplicationConfiguration&#10;</tspan><tspan x="523.077" y="227.655">Controller</tspan></text>
</g>
<g id="Start/End_2">
<rect id="Rectangle 705_2" x="176.5" y="392.5" width="231" height="47" rx="23.5" fill="#D0EAC1" stroke="#5F7D4F"/>
<text id="Start_2" fill="#312D2A" xml:space="preserve" style="white-space: pre" font-family="Oracle Sans" font-size="16" letter-spacing="0em"><tspan x="220.866" y="420.655">Workload Controller</tspan></text>
</g>
<g id="Start/End_3">
<rect id="Rectangle 705_3" x="442.5" y="392.5" width="231" height="47" rx="23.5" fill="#D0EAC1" stroke="#5F7D4F"/>
<text id="Start_3" fill="#312D2A" xml:space="preserve" style="white-space: pre" font-family="Oracle Sans" font-size="16" letter-spacing="0em"><tspan x="505.038" y="420.655">Trait Controller</tspan></text>
</g>
<g id="Start/End_4">
<rect id="Rectangle 705_4" x="708.5" y="392.5" width="231" height="47" rx="23.5" fill="#D0EAC1" stroke="#5F7D4F"/>
<text id="Start_4" fill="#312D2A" xml:space="preserve" style="white-space: pre" font-family="Oracle Sans" font-size="16" letter-spacing="0em"><tspan x="765.101" y="420.655">Scope Controller</tspan></text>
</g>
<path id="Vector 95" d="M962.707 132.293C962.317 131.902 961.683 131.902 961.293 132.293L954.929 138.657C954.538 139.047 954.538 139.681 954.929 140.071C955.319 140.462 955.953 140.462 956.343 140.071L962 134.414L967.657 140.071C968.047 140.462 968.681 140.462 969.071 140.071C969.462 139.681 969.462 139.047 969.071 138.657L962.707 132.293ZM962 215.5L962.003 216.5L963 216.497V215.5H962ZM778.925 215.5L778.927 214.5H778.925V215.5ZM870.462 215.75L870.46 216.75L870.465 216.75L870.462 215.75ZM961 133V215.5H963V133H961ZM778.925 214.5H674V216.5H778.925V214.5ZM961.997 214.5L870.46 214.75L870.465 216.75L962.003 216.5L961.997 214.5ZM870.465 214.75L778.927 214.5L778.922 216.5L870.46 216.75L870.465 214.75Z" fill="#312D2A"/>
<path id="Vector 97" d="M96.2929 133.293C96.6834 132.902 97.3166 132.902 97.7071 133.293L104.071 139.657C104.462 140.047 104.462 140.681 104.071 141.071C103.681 141.462 103.047 141.462 102.657 141.071L97 135.414L91.3431 141.071C90.9526 141.462 90.3195 141.462 89.929 141.071C89.5384 140.681 89.5384 140.047 89.929 139.657L96.2929 133.293ZM97 204V205H96V204H97ZM98 134V204H96V134H98ZM97 203H318.852V205H97V203ZM318.852 203H446V205H318.852V203Z" fill="#312D2A"/>
<path id="Vector 98" d="M291.293 297.707C291.683 298.098 292.317 298.098 292.707 297.707L299.071 291.343C299.462 290.953 299.462 290.319 299.071 289.929C298.681 289.538 298.047 289.538 297.657 289.929L292 295.586L286.343 289.929C285.953 289.538 285.319 289.538 284.929 289.929C284.538 290.319 284.538 290.953 284.929 291.343L291.293 297.707ZM292 228V227H291V228H292ZM293 297V228H291V297H293ZM292 229H389.894V227H292V229ZM389.894 229H446V227H389.894V229Z" fill="#312D2A"/>
<g id="Connector Line Label">
<rect width="43" height="14" transform="translate(536 156)" fill="white"/>
<text id="Line Label" fill="#312D2A" xml:space="preserve" style="white-space: pre" font-family="Oracle Sans" font-size="14" letter-spacing="0em"><tspan x="540.13" y="168.089">reads</tspan></text>
</g>
<g id="Connector Line Label_2">
<rect width="43" height="14" transform="translate(539 358)" fill="white"/>
<text id="Line Label_2" fill="#312D2A" xml:space="preserve" style="white-space: pre" font-family="Oracle Sans" font-size="14" letter-spacing="0em"><tspan x="543.13" y="370.089">reads</tspan></text>
</g>
<g id="Connector Line Label_3">
<rect width="46" height="14" transform="translate(269.5 458.5)" fill="white"/>
<text id="Line Label_3" fill="#312D2A" xml:space="preserve" style="white-space: pre" font-family="Oracle Sans" font-size="14" letter-spacing="0em"><tspan x="273.619" y="470.589">writes</tspan></text>
</g>
<g id="Connector Line Label_4">
<rect width="43" height="14" transform="translate(272 358)" fill="white"/>
<text id="Line Label_4" fill="#312D2A" xml:space="preserve" style="white-space: pre" font-family="Oracle Sans" font-size="14" letter-spacing="0em"><tspan x="276.13" y="370.089">reads</tspan></text>
</g>
<g id="Connector Line Label_5">
<rect width="43" height="14" transform="translate(272 197)" fill="white"/>
<text id="Line Label_5" fill="#312D2A" xml:space="preserve" style="white-space: pre" font-family="Oracle Sans" font-size="14" letter-spacing="0em"><tspan x="276.13" y="209.089">reads</tspan></text>
</g>
<g id="Connector Line Label_6">
<rect width="46" height="14" transform="translate(535.5 458.5)" fill="white"/>
<text id="Line Label_6" fill="#312D2A" xml:space="preserve" style="white-space: pre" font-family="Oracle Sans" font-size="14" letter-spacing="0em"><tspan x="539.619" y="470.589">writes</tspan></text>
</g>
<g id="Connector Line Label_7">
<rect width="46" height="14" transform="translate(801.5 458.5)" fill="white"/>
<text id="Line Label_7" fill="#312D2A" xml:space="preserve" style="white-space: pre" font-family="Oracle Sans" font-size="14" letter-spacing="0em"><tspan x="805.619" y="470.589">writes</tspan></text>
</g>
<g id="Connector Line Label_8">
<rect width="43" height="14" transform="translate(892 308)" fill="white"/>
<text id="Line Label_8" fill="#312D2A" xml:space="preserve" style="white-space: pre" font-family="Oracle Sans" font-size="14" letter-spacing="0em"><tspan x="896.13" y="320.089">reads</tspan></text>
</g>
<g id="Connector Line Label_9">
<rect width="46" height="14" transform="translate(536 262)" fill="white"/>
<text id="Line Label_9" fill="#312D2A" xml:space="preserve" style="white-space: pre" font-family="Oracle Sans" font-size="14" letter-spacing="0em"><tspan x="540.119" y="274.089">writes</tspan></text>
</g>
<g id="Connector Line Label_10">
<rect width="59" height="14" transform="translate(786 207)" fill="#F6FAFA"/>
<text id="Line Label_10" fill="#312D2A" xml:space="preserve" style="white-space: pre" font-family="Oracle Sans" font-size="14" letter-spacing="0em"><tspan x="790.029" y="219.089">updates</tspan></text>
</g>
<g id="Connector Line Label_11">
<rect width="46" height="14" transform="translate(349 221)" fill="white"/>
<text id="Line Label_11" fill="#312D2A" xml:space="preserve" style="white-space: pre" font-family="Oracle Sans" font-size="14" letter-spacing="0em"><tspan x="353.119" y="233.089">writes</tspan></text>
</g>
<g id="Connector Line Label_12">
<rect width="74" height="14" transform="translate(255 106)" fill="white"/>
<text id="Line Label_12" fill="#312D2A" xml:space="preserve" style="white-space: pre" font-family="Oracle Sans" font-size="14" letter-spacing="0em"><tspan x="259.085" y="118.089">references</tspan></text>
</g>
<g id="Connector Line Label_13">
<rect width="74" height="14" transform="translate(777 106)" fill="white"/>
<text id="Line Label_13" fill="#312D2A" xml:space="preserve" style="white-space: pre" font-family="Oracle Sans" font-size="14" letter-spacing="0em"><tspan x="781.085" y="118.089">references</tspan></text>
</g>
<path id="Vector 106" d="M99.7071 38.2929C99.3166 37.9024 98.6834 37.9024 98.2929 38.2929L91.9289 44.6569C91.5384 45.0474 91.5384 45.6805 91.9289 46.0711C92.3195 46.4616 92.9526 46.4616 93.3431 46.0711L99 40.4142L104.657 46.0711C105.047 46.4616 105.681 46.4616 106.071 46.0711C106.462 45.6805 106.462 45.0474 106.071 44.6569L99.7071 38.2929ZM100 96L100 39L98 39L98 96L100 96Z" fill="#161513"/>
<g id="Connector Line Label_14">
<rect width="62" height="14" transform="translate(67 63)" fill="white"/>
<text id="Line Label_14" fill="#312D2A" xml:space="preserve" style="white-space: pre" font-family="Oracle Sans" font-size="14" letter-spacing="0em"><tspan x="71.0801" y="75.089">contains</tspan></text>
</g>
<path id="Vector 109" d="M557.707 38.2929C557.317 37.9024 556.683 37.9024 556.293 38.2929L549.929 44.6569C549.538 45.0474 549.538 45.6805 549.929 46.0711C550.319 46.4616 550.953 46.4616 551.343 46.0711L557 40.4142L562.657 46.0711C563.047 46.4616 563.681 46.4616 564.071 46.0711C564.462 45.6805 564.462 45.0474 564.071 44.6569L557.707 38.2929ZM558 96L558 39L556 39L556 96L558 96Z" fill="#161513"/>
<g id="Connector Line Label_15">
<rect width="62" height="14" transform="translate(525 63)" fill="white"/>
<text id="Line Label_15" fill="#312D2A" xml:space="preserve" style="white-space: pre" font-family="Oracle Sans" font-size="14" letter-spacing="0em"><tspan x="529.08" y="75.089">contains</tspan></text>
</g>
<g id="Text Heading">
<rect x="458.5" y="0.5" width="191" height="36" rx="3.5" fill="#F5F4F2"/>
<text id="Neutral Group Heading H3" fill="#312D2A" xml:space="preserve" style="white-space: pre" font-family="Oracle Sans" font-size="16" letter-spacing="0em"><tspan x="537.922" y="24.316">Trait</tspan></text>
<rect x="458.5" y="0.5" width="191" height="36" rx="3.5" stroke="#9E9892"/>
</g>
<g id="Text Heading_2">
<rect x="490.5" y="297.5" width="135" height="36" rx="3.5" fill="#FCEFCB"/>
<text id="Neutral Group Heading H3_2" fill="#312D2A" xml:space="preserve" style="white-space: pre" font-family="Oracle Sans" font-size="16" letter-spacing="0em"><tspan x="541.922" y="321.316">Trait</tspan></text>
<rect x="490.5" y="297.5" width="135" height="36" rx="3.5" stroke="#DEB068"/>
</g>
<g id="Text Heading_3">
<rect x="224.5" y="296.5" width="135" height="36" rx="3.5" fill="#FCEFCB"/>
<text id="Neutral Group Heading H3_3" fill="#312D2A" xml:space="preserve" style="white-space: pre" font-family="Oracle Sans" font-size="16" letter-spacing="0em"><tspan x="257.75" y="320.316">Workload</tspan></text>
<rect x="224.5" y="296.5" width="135" height="36" rx="3.5" stroke="#DEB068"/>
</g>
<g id="Text Heading_4">
<rect x="438.5" y="499.5" width="241" height="36" rx="3.5" fill="#FCEFCB"/>
<text id="Neutral Group Heading H3_4" fill="#312D2A" xml:space="preserve" style="white-space: pre" font-family="Oracle Sans" font-size="16" letter-spacing="0em"><tspan x="471.281" y="523.316">Trait Runtime Resources</tspan></text>
<rect x="438.5" y="499.5" width="241" height="36" rx="3.5" stroke="#DEB068"/>
</g>
<g id="Text Heading_5">
<rect x="172.5" y="499.5" width="241" height="36" rx="3.5" fill="#FCEFCB"/>
<text id="Neutral Group Heading H3_5" fill="#312D2A" xml:space="preserve" style="white-space: pre" font-family="Oracle Sans" font-size="16" letter-spacing="0em"><tspan x="187.109" y="523.316">Workload Runtime Resources</tspan></text>
<rect x="172.5" y="499.5" width="241" height="36" rx="3.5" stroke="#DEB068"/>
</g>
<g id="Text Heading_6">
<rect x="704.5" y="499.5" width="241" height="36" rx="3.5" fill="#FCEFCB"/>
<text id="Neutral Group Heading H3_6" fill="#312D2A" xml:space="preserve" style="white-space: pre" font-family="Oracle Sans" font-size="16" letter-spacing="0em"><tspan x="731.344" y="523.316">Scope Runtime Resources</tspan></text>
<rect x="704.5" y="499.5" width="241" height="36" rx="3.5" stroke="#DEB068"/>
</g>
<g id="Text Heading_7">
<rect x="916.5" y="96.5" width="135" height="36" rx="3.5" fill="#FCEFCB"/>
<text id="Neutral Group Heading H3_7" fill="#312D2A" xml:space="preserve" style="white-space: pre" font-family="Oracle Sans" font-size="16" letter-spacing="0em"><tspan x="961.984" y="120.316">Scope</tspan></text>
<rect x="916.5" y="96.5" width="135" height="36" rx="3.5" stroke="#DEB068"/>
</g>
<g id="Text Heading_8">
<rect x="394.5" y="96.5" width="319" height="36" rx="3.5" fill="#FCEFCB"/>
<text id="Neutral Group Heading H3_8" fill="#312D2A" xml:space="preserve" style="white-space: pre" font-family="Oracle Sans" font-size="16" letter-spacing="0em"><tspan x="461.43" y="120.316">Application Configuration</tspan></text>
<rect x="394.5" y="96.5" width="319" height="36" rx="3.5" stroke="#DEB068"/>
</g>
<g id="Text Heading_9">
<rect x="0.5" y="96.5" width="191" height="36" rx="3.5" fill="#FCEFCB"/>
<text id="Neutral Group Heading H3_9" fill="#312D2A" xml:space="preserve" style="white-space: pre" font-family="Oracle Sans" font-size="16" letter-spacing="0em"><tspan x="53.2031" y="120.316">Component</tspan></text>
<rect x="0.5" y="96.5" width="191" height="36" rx="3.5" stroke="#DEB068"/>
</g>
<g id="Text Heading_10">
<rect x="0.5" y="1.5" width="191" height="36" rx="3.5" fill="#F5F4F2"/>
<text id="Neutral Group Heading H3_10" fill="#312D2A" xml:space="preserve" style="white-space: pre" font-family="Oracle Sans" font-size="16" letter-spacing="0em"><tspan x="61.75" y="25.316">Workload</tspan></text>
<rect x="0.5" y="1.5" width="191" height="36" rx="3.5" stroke="#9E9892"/>
</g>
</g>
<defs>
<clipPath id="clip0_3445_135416">
<rect width="1052" height="536" fill="white"/>
</clipPath>
</defs>
</svg>
