<svg width="574" height="346" viewBox="0 0 574 346" fill="none" xmlns="http://www.w3.org/2000/svg">
<g id="oam-arch" clip-path="url(#clip0_3445_135490)">
<rect width="574" height="346" fill="white"/>
<g id="Group 841">
<path id="Vector 117" d="M286.293 211.707C286.683 212.098 287.317 212.098 287.707 211.707L294.071 205.343C294.462 204.953 294.462 204.319 294.071 203.929C293.681 203.538 293.047 203.538 292.657 203.929L287 209.586L281.343 203.929C280.953 203.538 280.319 203.538 279.929 203.929C279.538 204.319 279.538 204.953 279.929 205.343L286.293 211.707ZM286 150V211H288V150H286Z" fill="#312D2A"/>
<path id="Vector 120" d="M286.293 309.707C286.683 310.098 287.317 310.098 287.707 309.707L294.071 303.343C294.462 302.953 294.462 302.319 294.071 301.929C293.681 301.538 293.047 301.538 292.657 301.929L287 307.586L281.343 301.929C280.953 301.538 280.319 301.538 279.929 301.929C279.538 302.319 279.538 302.953 279.929 303.343L286.293 309.707ZM286 248V249.906H288V248H286ZM286 253.719V257.531H288V253.719H286ZM286 261.344V265.156H288V261.344H286ZM286 268.969V272.781H288V268.969H286ZM286 276.594V280.406H288V276.594H286ZM286 284.219V288.031H288V284.219H286ZM286 291.844V295.656H288V291.844H286ZM286 299.469V303.281H288V299.469H286ZM286 307.094V309H288V307.094H286Z" fill="#312D2A"/>
<path id="Vector 121" d="M83.2929 309.707C83.6834 310.098 84.3166 310.098 84.7071 309.707L91.0711 303.343C91.4616 302.953 91.4616 302.319 91.0711 301.929C90.6806 301.538 90.0474 301.538 89.6569 301.929L84 307.586L78.3432 301.929C77.9526 301.538 77.3195 301.538 76.9289 301.929C76.5384 302.319 76.5384 302.953 76.9289 303.343L83.2929 309.707ZM83 150L83 151.987L85 151.987L85 150L83 150ZM83 155.962L83 159.938L85 159.937L85 155.962L83 155.962ZM83 163.913L83 167.888L85 167.888L85 163.913L83 163.913ZM83 171.862L83 175.837L85 175.837L85 171.862L83 171.862ZM83 179.813L83 183.788L85 183.788L85 179.813L83 179.813ZM83 187.763L83 191.737L85 191.737L85 187.763L83 187.763ZM83 195.712L83 199.687L85 199.687L85 195.712L83 195.712ZM83 203.662L83 207.637L85 207.637L85 203.662L83 203.662ZM83 211.612L83 215.587L85 215.587L85 211.612L83 211.612ZM83 219.562L83 223.537L85 223.537L85 219.562L83 219.562ZM83 227.512L83 231.487L85 231.487L85 227.512L83 227.512ZM83 235.462L83 239.437L85 239.437L85 235.462L83 235.462ZM83 243.412L83 247.387L85 247.387L85 243.412L83 243.412ZM83 251.362L83 255.337L85 255.337L85 251.362L83 251.362ZM83 259.312L83 263.287L85 263.287L85 259.312L83 259.312ZM83 267.262L83 271.237L85 271.237L85 267.262L83 267.262ZM83 275.212L83 279.187L85 279.187L85 275.212L83 275.212ZM83 283.162L83 287.137L85 287.137L85 283.162L83 283.162ZM83 291.112L83 295.087L85 295.087L85 291.112L83 291.112ZM83 299.063L83 303.038L85 303.038L85 299.062L83 299.063ZM83 307.012L83 309L85 309L85 307.012L83 307.012Z" fill="#312D2A"/>
<path id="Vector 122" d="M489.293 309.707C489.683 310.098 490.317 310.098 490.707 309.707L497.071 303.343C497.462 302.953 497.462 302.319 497.071 301.929C496.681 301.538 496.047 301.538 495.657 301.929L490 307.586L484.343 301.929C483.953 301.538 483.319 301.538 482.929 301.929C482.538 302.319 482.538 302.953 482.929 303.343L489.293 309.707ZM489 150L489 151.987L491 151.987L491 150L489 150ZM489 155.962L489 159.938L491 159.937L491 155.962L489 155.962ZM489 163.913L489 167.888L491 167.888L491 163.913L489 163.913ZM489 171.862L489 175.837L491 175.837L491 171.862L489 171.862ZM489 179.813L489 183.788L491 183.788L491 179.813L489 179.813ZM489 187.763L489 191.737L491 191.737L491 187.763L489 187.763ZM489 195.712L489 199.687L491 199.687L491 195.712L489 195.712ZM489 203.662L489 207.637L491 207.637L491 203.662L489 203.662ZM489 211.612L489 215.587L491 215.587L491 211.612L489 211.612ZM489 219.562L489 223.537L491 223.537L491 219.562L489 219.562ZM489 227.512L489 231.487L491 231.487L491 227.512L489 227.512ZM489 235.462L489 239.437L491 239.437L491 235.462L489 235.462ZM489 243.412L489 247.387L491 247.387L491 243.412L489 243.412ZM489 251.362L489 255.337L491 255.337L491 251.362L489 251.362ZM489 259.312L489 263.287L491 263.287L491 259.312L489 259.312ZM489 267.262L489 271.237L491 271.237L491 267.262L489 267.262ZM489 275.212L489 279.187L491 279.187L491 275.212L489 275.212ZM489 283.162L489 287.137L491 287.137L491 283.162L489 283.162ZM489 291.112L489 295.087L491 295.087L491 291.112L489 291.112ZM489 299.063L489 303.038L491 303.038L491 299.062L489 299.063ZM489 307.012L489 309L491 309L491 307.012L489 307.012Z" fill="#312D2A"/>
<path id="Vector 118" d="M226.707 132.707C227.098 132.317 227.098 131.683 226.707 131.293L220.343 124.929C219.953 124.538 219.319 124.538 218.929 124.929C218.538 125.319 218.538 125.953 218.929 126.343L224.586 132L218.929 137.657C218.538 138.047 218.538 138.681 218.929 139.071C219.319 139.462 219.953 139.462 220.343 139.071L226.707 132.707ZM124 133L226 133L226 131L124 131L124 133Z" fill="#312D2A"/>
<path id="Vector 119" d="M347.293 131.293C346.902 131.683 346.902 132.317 347.293 132.707L353.657 139.071C354.047 139.462 354.681 139.462 355.071 139.071C355.462 138.681 355.462 138.047 355.071 137.657L349.414 132L355.071 126.343C355.462 125.953 355.462 125.319 355.071 124.929C354.681 124.538 354.047 124.538 353.657 124.929L347.293 131.293ZM348 133L450 133L450 131L348 131L348 133Z" fill="#312D2A"/>
<path id="Vector 114" d="M250 55.7436V56.7436H251V55.7436H250ZM84 55.7436V54.7436H83V55.7436H84ZM83.2929 113.707C83.6834 114.098 84.3166 114.098 84.7071 113.707L91.0711 107.343C91.4616 106.953 91.4616 106.319 91.0711 105.929C90.6805 105.538 90.0474 105.538 89.6569 105.929L84 111.586L78.3431 105.929C77.9526 105.538 77.3195 105.538 76.9289 105.929C76.5384 106.319 76.5384 106.953 76.9289 107.343L83.2929 113.707ZM249 36V55.7436H251V36H249ZM250 54.7436H84V56.7436H250V54.7436ZM83 55.7436V113H85V55.7436H83Z" fill="#312D2A"/>
<path id="Vector 115" d="M324 55.7436V56.7436H323V55.7436H324ZM490 55.7436V54.7436H491V55.7436H490ZM490.707 113.707C490.317 114.098 489.683 114.098 489.293 113.707L482.929 107.343C482.538 106.953 482.538 106.319 482.929 105.929C483.319 105.538 483.953 105.538 484.343 105.929L490 111.586L495.657 105.929C496.047 105.538 496.681 105.538 497.071 105.929C497.462 106.319 497.462 106.953 497.071 107.343L490.707 113.707ZM325 36V55.7436H323V36H325ZM324 54.7436H490V56.7436H324V54.7436ZM491 55.7436V113H489V55.7436H491Z" fill="#312D2A"/>
<g id="Connector Line Label">
<rect width="71" height="14" transform="translate(140 125)" fill="white"/>
<text id="Line Label" fill="#312D2A" xml:space="preserve" style="white-space: pre" font-family="Oracle Sans" font-size="14" letter-spacing="0em"><tspan x="144.157" y="137.089">applied to</tspan></text>
</g>
<g id="Connector Line Label_2">
<rect width="62" height="14" transform="translate(256 174)" fill="white"/>
<text id="Line Label_2" fill="#312D2A" xml:space="preserve" style="white-space: pre" font-family="Oracle Sans" font-size="14" letter-spacing="0em"><tspan x="260.08" y="186.089">contains</tspan></text>
</g>
<g id="Connector Line Label_3">
<rect width="75" height="14" transform="translate(249 272)" fill="white"/>
<text id="Line Label_3" fill="#312D2A" xml:space="preserve" style="white-space: pre" font-family="Oracle Sans" font-size="14" letter-spacing="0em"><tspan x="253.188" y="284.089">defined by</tspan></text>
</g>
<g id="Connector Line Label_4">
<rect width="75" height="14" transform="translate(46 272)" fill="white"/>
<text id="Line Label_4" fill="#312D2A" xml:space="preserve" style="white-space: pre" font-family="Oracle Sans" font-size="14" letter-spacing="0em"><tspan x="50.1885" y="284.089">defined by</tspan></text>
</g>
<g id="Connector Line Label_5">
<rect width="75" height="14" transform="translate(452 272)" fill="white"/>
<text id="Line Label_5" fill="#312D2A" xml:space="preserve" style="white-space: pre" font-family="Oracle Sans" font-size="14" letter-spacing="0em"><tspan x="456.188" y="284.089">defined by</tspan></text>
</g>
<g id="Connector Line Label_6">
<rect width="74" height="14" transform="translate(453 76)" fill="white"/>
<text id="Line Label_6" fill="#312D2A" xml:space="preserve" style="white-space: pre" font-family="Oracle Sans" font-size="14" letter-spacing="0em"><tspan x="457.085" y="88.089">references</tspan></text>
</g>
<g id="Connector Line Label_7">
<rect width="71" height="14" transform="translate(363 125)" fill="white"/>
<text id="Line Label_7" fill="#312D2A" xml:space="preserve" style="white-space: pre" font-family="Oracle Sans" font-size="14" letter-spacing="0em"><tspan x="367.157" y="137.089">applied to</tspan></text>
</g>
<g id="Connector Line Label_8">
<rect width="62" height="14" transform="translate(53 76)" fill="white"/>
<text id="Line Label_8" fill="#312D2A" xml:space="preserve" style="white-space: pre" font-family="Oracle Sans" font-size="14" letter-spacing="0em"><tspan x="57.0801" y="88.089">contains</tspan></text>
</g>
<path id="Vector 116" d="M286.293 113.707C286.683 114.098 287.317 114.098 287.707 113.707L294.071 107.343C294.462 106.953 294.462 106.319 294.071 105.929C293.681 105.538 293.047 105.538 292.657 105.929L287 111.586L281.343 105.929C280.953 105.538 280.319 105.538 279.929 105.929C279.538 106.319 279.538 106.953 279.929 107.343L286.293 113.707ZM286 36V113H288V36H286Z" fill="#312D2A"/>
<g id="Connector Line Label_9">
<rect width="74" height="14" transform="translate(250 76)" fill="white"/>
<text id="Line Label_9" fill="#312D2A" xml:space="preserve" style="white-space: pre" font-family="Oracle Sans" font-size="14" letter-spacing="0em"><tspan x="254.085" y="88.089">references</tspan></text>
</g>
<g id="Text Heading">
<rect x="44.5" y="114.5" width="79" height="35" rx="3.5" fill="#FCEFCB"/>
<text id="Neutral Group Heading H3" fill="#312D2A" xml:space="preserve" style="white-space: pre" font-family="Oracle Sans" font-size="16" letter-spacing="0em"><tspan x="64.1953" y="137.816">Traits</tspan></text>
<rect x="44.5" y="114.5" width="79" height="35" rx="3.5" stroke="#DEB068"/>
</g>
<g id="Text Heading_2">
<rect x="227.5" y="212.5" width="119" height="35" rx="3.5" fill="#FCEFCB"/>
<text id="Neutral Group Heading H3_2" fill="#312D2A" xml:space="preserve" style="white-space: pre" font-family="Oracle Sans" font-size="16" letter-spacing="0em"><tspan x="249.023" y="235.816">Workloads</tspan></text>
<rect x="227.5" y="212.5" width="119" height="35" rx="3.5" stroke="#DEB068"/>
</g>
<g id="Text Heading_3">
<rect x="0.5" y="310.5" width="167" height="35" rx="3.5" fill="#FCEFCB"/>
<text id="Neutral Group Heading H3_3" fill="#312D2A" xml:space="preserve" style="white-space: pre" font-family="Oracle Sans" font-size="16" letter-spacing="0em"><tspan x="28.9453" y="333.816">Trait Definitons</tspan></text>
<rect x="0.5" y="310.5" width="167" height="35" rx="3.5" stroke="#DEB068"/>
</g>
<g id="Text Heading_4">
<rect x="199.5" y="310.5" width="167" height="35" rx="3.5" fill="#FCEFCB"/>
<text id="Neutral Group Heading H3_4" fill="#312D2A" xml:space="preserve" style="white-space: pre" font-family="Oracle Sans" font-size="16" letter-spacing="0em"><tspan x="209.773" y="333.816">Workload Definitons</tspan></text>
<rect x="199.5" y="310.5" width="167" height="35" rx="3.5" stroke="#DEB068"/>
</g>
<g id="Text Heading_5">
<rect x="406.5" y="310.5" width="167" height="35" rx="3.5" fill="#FCEFCB"/>
<text id="Neutral Group Heading H3_5" fill="#312D2A" xml:space="preserve" style="white-space: pre" font-family="Oracle Sans" font-size="16" letter-spacing="0em"><tspan x="429.008" y="333.816">Scope Definitons</tspan></text>
<rect x="406.5" y="310.5" width="167" height="35" rx="3.5" stroke="#DEB068"/>
</g>
<g id="Text Heading_6">
<rect x="227.5" y="114.5" width="119" height="35" rx="3.5" fill="#FCEFCB"/>
<text id="Neutral Group Heading H3_6" fill="#312D2A" xml:space="preserve" style="white-space: pre" font-family="Oracle Sans" font-size="16" letter-spacing="0em"><tspan x="240.477" y="137.816">Components</tspan></text>
<rect x="227.5" y="114.5" width="119" height="35" rx="3.5" stroke="#DEB068"/>
</g>
<g id="Text Heading_7">
<rect x="450.5" y="114.5" width="79" height="35" rx="3.5" fill="#FCEFCB"/>
<text id="Neutral Group Heading H3_7" fill="#312D2A" xml:space="preserve" style="white-space: pre" font-family="Oracle Sans" font-size="16" letter-spacing="0em"><tspan x="464.18" y="137.816">Scopes</tspan></text>
<rect x="450.5" y="114.5" width="79" height="35" rx="3.5" stroke="#DEB068"/>
</g>
<g id="Text Heading_8">
<rect x="166.5" y="0.5" width="241" height="35" rx="3.5" fill="#FCEFCB"/>
<text id="Neutral Group Heading H3_8" fill="#312D2A" xml:space="preserve" style="white-space: pre" font-family="Oracle Sans" font-size="16" letter-spacing="0em"><tspan x="190.703" y="23.816">Application Configurations</tspan></text>
<rect x="166.5" y="0.5" width="241" height="35" rx="3.5" stroke="#DEB068"/>
</g>
</g>
</g>
<defs>
<clipPath id="clip0_3445_135490">
<rect width="574" height="346" fill="white"/>
</clipPath>
</defs>
</svg>
