<svg id="Layer_1" data-name="Layer 1" xmlns="http://www.w3.org/2000/svg" viewBox="0 0 112 30"><defs><style>.cls-1{fill:#fff;}</style></defs><title>Artboard 3</title><path class="cls-1" d="M6.48,25.09l2.33-7.52h3.5L8.5,28.3H4.42L.61,17.57h3.5Z"/><path class="cls-1" d="M23.7,23.53H16.25a2.49,2.49,0,0,0,.62,1.74,2.19,2.19,0,0,0,2.63.17,1.73,1.73,0,0,0,.64-1h3.48a4.54,4.54,0,0,1-.92,2,5,5,0,0,1-1.81,1.41,5.73,5.73,0,0,1-2.44.51,5.66,5.66,0,0,1-2.8-.67,4.71,4.71,0,0,1-1.92-1.91A6,6,0,0,1,13,22.94,6.08,6.08,0,0,1,13.72,20a4.68,4.68,0,0,1,1.92-1.9,5.72,5.72,0,0,1,2.81-.67,5.74,5.74,0,0,1,2.8.66,4.6,4.6,0,0,1,1.88,1.83,5.52,5.52,0,0,1,.66,2.73A4.78,4.78,0,0,1,23.7,23.53Zm-3.8-3a2.3,2.3,0,0,0-2.95,0,2.24,2.24,0,0,0-.68,1.58h4.2A2,2,0,0,0,19.9,20.56Z"/><path class="cls-1" d="M29.92,18A4.11,4.11,0,0,1,32,17.45V21h-.94a3.25,3.25,0,0,0-2,.56,2.22,2.22,0,0,0-.73,1.89V28.3H25V17.57h3.29v2A4.56,4.56,0,0,1,29.92,18Z"/><path class="cls-1" d="M38.21,18a4.11,4.11,0,0,1,2.11-.58V21h-.94a3.25,3.25,0,0,0-2,.56,2.24,2.24,0,0,0-.72,1.89V28.3H33.34V17.57h3.29v2A4.62,4.62,0,0,1,38.21,18Z"/><path class="cls-1" d="M47.82,18a3.34,3.34,0,0,1,1.31,1.52V17.57H52.4V28.3H49.13V26.36a3.34,3.34,0,0,1-1.31,1.52,3.88,3.88,0,0,1-2.11.56,4.29,4.29,0,0,1-2.38-.67,4.49,4.49,0,0,1-1.65-1.91,6.54,6.54,0,0,1-.61-2.92A6.57,6.57,0,0,1,41.68,20a4.46,4.46,0,0,1,1.65-1.9,4.29,4.29,0,0,1,2.38-.67A3.88,3.88,0,0,1,47.82,18Zm-2.76,3a2.71,2.71,0,0,0-.64,1.93,2.7,2.7,0,0,0,.64,1.92,2.22,2.22,0,0,0,1.7.69,2.25,2.25,0,0,0,1.71-.71,2.68,2.68,0,0,0,.66-1.9A2.7,2.7,0,0,0,48.47,21a2.25,2.25,0,0,0-1.71-.7A2.22,2.22,0,0,0,45.06,21Z"/><path class="cls-1" d="M57.5,25.55h5V28.3H53.9V25.71l4.62-5.41H54V17.57h8.29v2.6Z"/><path class="cls-1" d="M66.85,25.55h5V28.3H63.25V25.71l4.62-5.41H63.33V17.57h8.29v2.6Z"/><path class="cls-1" d="M79.49,18a3.4,3.4,0,0,1,1.31,1.52V17.57h3.27V28.3H80.8V26.36a3.4,3.4,0,0,1-1.31,1.52,3.92,3.92,0,0,1-2.12.56A4.32,4.32,0,0,1,75,27.77a4.56,4.56,0,0,1-1.65-1.91,6.68,6.68,0,0,1-.61-2.92A6.71,6.71,0,0,1,73.34,20,4.53,4.53,0,0,1,75,18.1a4.32,4.32,0,0,1,2.38-.67A3.92,3.92,0,0,1,79.49,18Zm-2.76,3a2.71,2.71,0,0,0-.65,1.93,2.7,2.7,0,0,0,.65,1.92,2.21,2.21,0,0,0,1.7.69,2.23,2.23,0,0,0,1.7-.71,2.68,2.68,0,0,0,.67-1.9A2.7,2.7,0,0,0,80.13,21a2.43,2.43,0,0,0-3.4,0Z"/><path class="cls-1" d="M95.23,18.68a4.92,4.92,0,0,1,1.09,3.39V28.3H93V22.45a2.37,2.37,0,0,0-.57-1.68,2,2,0,0,0-1.51-.6,2.06,2.06,0,0,0-1.58.63,2.53,2.53,0,0,0-.59,1.81V28.3H85.49V17.57h3.29v2A3.6,3.6,0,0,1,90.15,18a4.08,4.08,0,0,1,2.15-.56A3.7,3.7,0,0,1,95.23,18.68Z"/><path class="cls-1" d="M105.91,18.1a4.85,4.85,0,0,1,2,1.91,5.79,5.79,0,0,1,.72,2.93,5.75,5.75,0,0,1-.72,2.92,4.85,4.85,0,0,1-2,1.91,6.44,6.44,0,0,1-5.72,0,4.82,4.82,0,0,1-2-1.91,5.65,5.65,0,0,1-.73-2.92A5.69,5.69,0,0,1,98.2,20a4.82,4.82,0,0,1,2-1.91,6.44,6.44,0,0,1,5.72,0ZM101.47,21a2.79,2.79,0,0,0-.65,2,2.74,2.74,0,0,0,.65,2,2.2,2.2,0,0,0,3.16,0,2.78,2.78,0,0,0,.64-2,2.84,2.84,0,0,0-.64-2,2.18,2.18,0,0,0-3.16,0Z"/><path class="cls-1" d="M26.77,3.64a.6.6,0,0,0-.6.6v11h1.2v-11A.6.6,0,0,0,26.77,3.64Z"/><path class="cls-1" d="M82.27,3.64a.6.6,0,0,0-.6.6v11h1.2v-11A.6.6,0,0,0,82.27,3.64Z"/><path class="cls-1" d="M23.07,6.6c-5.91,8.28-21.2,6.78-21.35,6.76a.6.6,0,0,0-.13,1.19c.18,0,1.41.14,3.26.14,5,0,14.57-.91,19.2-7.39a.6.6,0,1,0-1-.7Z"/><path class="cls-1" d="M107.59,13.36c-.16,0-15.8,1.53-21.72-6.76a.6.6,0,0,0-1,.7c4.63,6.48,14.36,7.39,19.5,7.39,1.87,0,3.14-.12,3.32-.14a.6.6,0,0,0,.54-.65A.61.61,0,0,0,107.59,13.36Z"/><path class="cls-1" d="M78.75,6.54C75,10.52,64.41,13,52.48,12.66,42,12.37,33.41,10,30.5,6.56a.6.6,0,1,0-.92.78c3.79,4.45,14.3,6.28,22.86,6.51.65,0,1.32,0,2,0,9.17,0,20.57-1.67,25.18-6.52a.6.6,0,0,0-.87-.82Z"/><path class="cls-1" d="M110.19,4.92a3.82,3.82,0,0,0-4.77-.13,5.05,5.05,0,0,0-9.64.7,3.2,3.2,0,0,0-1.4-.33,3.1,3.1,0,0,0-3.1,3.09,2.94,2.94,0,0,0,.12.84.6.6,0,0,0,.57.44l.17,0a.6.6,0,0,0,.41-.74,2.25,2.25,0,0,1-.07-.52A1.9,1.9,0,0,1,95.81,7a.58.58,0,0,0,.63.14.66.66,0,0,0,.42-.54,3.85,3.85,0,0,1,7.66-.53.62.62,0,0,0,.47.51.61.61,0,0,0,.63-.26,2.51,2.51,0,0,1,3.77-.51.6.6,0,1,0,.8-.9Z"/></svg>