<svg id="Layer_1" data-name="Layer 1" xmlns="http://www.w3.org/2000/svg" viewBox="0 0 178.27 30.14"><defs><style>.cls-1{fill:#488eaf;}.cls-2{fill:#83b7d0;}.cls-3{fill:#fff;}.cls-4{fill:#004f78;}</style></defs><path class="cls-1" d="M11.61,10.27v9.84l1.14,2,.29.27V7.92A15.15,15.15,0,0,1,11.61,10.27Z"/><path class="cls-1" d="M7.94,13.76l1.38,2.38V12.78A11.92,11.92,0,0,1,7.94,13.76Z"/><path class="cls-1" d="M9.89,12.28v4.85l1.15,2V11A13.61,13.61,0,0,1,9.89,12.28Z"/><path class="cls-1" d="M13,0H0L7,12.1C11.82,9.18,12.83,2.63,13,0Z"/><path class="cls-1" d="M27.79,12.15,34.8,0H21.73V.54C21.86,3.49,22.76,9.67,27.79,12.15Z"/><path class="cls-1" d="M20,4.77V.71c0-.26,0-.49,0-.71H14.85V4.77Z"/><polygon class="cls-1" points="19.91 13.36 14.85 13.36 14.85 23.48 13.56 23.48 17.4 30.14 21.25 23.48 19.91 23.48 19.91 13.36"/><path class="cls-1" d="M23.64,11.36v8l1.14-2v-4.9A11.85,11.85,0,0,1,23.64,11.36Z"/><rect class="cls-1" x="14.85" y="6.68" width="5.06" height="4.77"/><path class="cls-1" d="M25.35,16.37l1.48-2.56a11.74,11.74,0,0,1-1.48-.91Z"/><path class="cls-1" d="M21.82,8.56v14l1.24-2.22V10.68A13,13,0,0,1,21.82,8.56Z"/><path class="cls-2" d="M29.08,3.63H24.69a1.24,1.24,0,0,0,0-2.48H18.77a1.24,1.24,0,1,0,0,2.48h-12a1.24,1.24,0,0,0,0,2.48H9.6a1.24,1.24,0,1,0,0,2.48h5.73a1.24,1.24,0,1,0,0-2.48H29.08a1.24,1.24,0,1,0,0-2.48Z"/><path class="cls-3" d="M21.73.54V0H19.89c0,.22,0,.45,0,.71V4.77H14.85V0H13c-.17,2.63-1.13,9.18-6,12.1l1,1.66a11.92,11.92,0,0,0,1.38-1v3.36l.57,1V12.28A13.61,13.61,0,0,0,11,11v8.07l.57,1V10.27A15,15,0,0,0,13,7.92v14.5l.57,1.06h1.29V13.36h5.06V23.48h1.34l.57-.92v-14a13,13,0,0,0,1.24,2.12v9.66l.58-1v-8a11.85,11.85,0,0,0,1.14,1.1v4.9l.57-1V12.9a11.74,11.74,0,0,0,1.48.91l1-1.66C22.76,9.67,21.86,3.49,21.73.54ZM19.91,11.45H14.85V6.68h5.06Z"/><polygon class="cls-4" points="12.75 22.15 22.06 22.15 17.4 30.14 12.75 22.15"/><path class="cls-3" d="M42.54,9.39H45.6L40.8,23.48H38L33.25,9.39H36.4l3.05,10.7Z"/><path class="cls-3" d="M58.75,11.89H51.3v3h6.84v2.45H51.3V21h7.8v2.53H48.42V9.39H58.75Z"/><path class="cls-3" d="M71.4,9.76a3.46,3.46,0,0,1,1.32,1,4.44,4.44,0,0,1,.7,1.19,3.8,3.8,0,0,1,.26,1.48,4.15,4.15,0,0,1-.5,2,2.81,2.81,0,0,1-1.67,1.37,2.68,2.68,0,0,1,1.38,1.12,4.63,4.63,0,0,1,.4,2.2V21a7.27,7.27,0,0,0,.08,1.31,1.19,1.19,0,0,0,.54.8v.35H70.66c-.08-.31-.15-.56-.19-.75a8.13,8.13,0,0,1-.12-1.22l0-1.3a2.65,2.65,0,0,0-.47-1.8A2.34,2.34,0,0,0,68.19,18H65.31v5.52H62.43V9.39h6.74A6,6,0,0,1,71.4,9.76Zm-6.09,2.08v3.79h3.17a3.45,3.45,0,0,0,1.42-.23,1.6,1.6,0,0,0,.83-1.59,1.78,1.78,0,0,0-.81-1.72,2.84,2.84,0,0,0-1.36-.25Z"/><path class="cls-3" d="M86.51,9.76a3.46,3.46,0,0,1,1.32,1,4.22,4.22,0,0,1,.71,1.19,4,4,0,0,1,.26,1.48,4.16,4.16,0,0,1-.51,2,2.76,2.76,0,0,1-1.67,1.37A2.68,2.68,0,0,1,88,17.87a4.62,4.62,0,0,1,.41,2.2V21a6.42,6.42,0,0,0,.08,1.31,1.13,1.13,0,0,0,.54.8v.35H85.78c-.09-.31-.15-.56-.19-.75a7,7,0,0,1-.13-1.22v-1.3a2.7,2.7,0,0,0-.47-1.8A2.38,2.38,0,0,0,83.3,18H80.43v5.52H77.55V9.39h6.74A6,6,0,0,1,86.51,9.76Zm-6.08,2.08v3.79H83.6A3.4,3.4,0,0,0,85,15.4a1.59,1.59,0,0,0,.84-1.59A1.78,1.78,0,0,0,85,12.09a2.86,2.86,0,0,0-1.36-.25Z"/><path class="cls-3" d="M96.63,9.39H100l5,14.09h-3.19l-.93-2.89H95.63l-.95,2.89H91.6Zm-.2,8.77H100l-1.78-5.54Z"/><path class="cls-3" d="M107.21,21l7.2-9.11h-7V9.39h10.68v2.37L110.77,21h7.32v2.48H107.21Z"/><path class="cls-3" d="M121.12,21l7.21-9.11h-7V9.39H132v2.37L124.69,21H132v2.48H121.12Z"/><path class="cls-3" d="M139.08,9.39h3.33l5,14.09h-3.19l-.93-2.89h-5.19l-1,2.89h-3.08Zm-.19,8.77h3.61l-1.78-5.54Z"/><path class="cls-3" d="M150.12,9.39h3.09l5.59,9.83V9.39h2.74V23.48H158.6l-5.73-10v10h-2.75Z"/><path class="cls-3" d="M176.13,22.23a7.31,7.31,0,0,1-9.23,0,7.58,7.58,0,0,1-2.14-5.81q0-3.87,2.14-5.81a7.28,7.28,0,0,1,9.23,0q2.15,1.94,2.14,5.81A7.58,7.58,0,0,1,176.13,22.23Zm-1.84-2.14a5.73,5.73,0,0,0,1-3.67,5.77,5.77,0,0,0-1-3.67,3.35,3.35,0,0,0-2.77-1.29,3.39,3.39,0,0,0-2.79,1.29,5.67,5.67,0,0,0-1,3.67,5.67,5.67,0,0,0,1,3.67,3.39,3.39,0,0,0,2.79,1.29A3.35,3.35,0,0,0,174.29,20.09Z"/></svg>